<?xml version="1.0" encoding="utf-8"?>
<!-- Generator: Adobe Illustrator 23.1.0, SVG Export Plug-In . SVG Version: 6.00 Build 0)  -->
<svg version="1.1"
	 id="Слой_1" xmlns:cc="http://creativecommons.org/ns#" xmlns:dc="http://purl.org/dc/elements/1.1/" xmlns:inkscape="http://www.inkscape.org/namespaces/inkscape" xmlns:rdf="http://www.w3.org/1999/02/22-rdf-syntax-ns#" xmlns:sodipodi="http://sodipodi.sourceforge.net/DTD/sodipodi-0.dtd" xmlns:svg="http://www.w3.org/2000/svg"
	 xmlns="http://www.w3.org/2000/svg" xmlns:xlink="http://www.w3.org/1999/xlink" x="0px" y="0px" viewBox="0 0 20 20"
	 style="enable-background:new 0 0 20 20;" xml:space="preserve">
<style type="text/css">
	.st0{fill-rule:evenodd;clip-rule:evenodd;fill:#0072FF;}
</style>
<path class="st0" d="M10.6,0.8c-0.1-0.2-0.4-0.4-0.6-0.4S9.5,0.6,9.4,0.8c0,0-1.8,3.6-2.5,5.2C6.7,6.2,6.5,6.4,6.3,6.4
	C4.6,6.6,0.6,7.2,0.6,7.2C0.3,7.3,0.1,7.4,0,7.7C0,7.9,0,8.2,0.2,8.4c0,0,2.9,2.8,4.1,4c0.2,0.2,0.2,0.4,0.2,0.6
	c-0.3,1.7-1,5.7-1,5.7c0,0.3,0.1,0.5,0.3,0.7c0.2,0.2,0.5,0.2,0.7,0.1c0,0,3.6-1.9,5.1-2.7c0.2-0.1,0.4-0.1,0.7,0
	c1.5,0.8,5.1,2.7,5.1,2.7c0.2,0.1,0.5,0.1,0.7-0.1c0.2-0.2,0.3-0.4,0.3-0.7c0,0-0.7-4-1-5.7c0-0.2,0-0.5,0.2-0.6
	c1.2-1.2,4.1-4,4.1-4C20,8.2,20,7.9,20,7.7c-0.1-0.3-0.3-0.4-0.6-0.5c0,0-4-0.6-5.7-0.8c-0.2,0-0.4-0.2-0.5-0.4
	C12.4,4.5,10.6,0.8,10.6,0.8z"/>
</svg>
