<svg width="44" height="44" viewBox="0 0 44 44" fill="none" xmlns="http://www.w3.org/2000/svg">
<g filter="url(#filter0_b_1104_8290)">
<path fill-rule="evenodd" clip-rule="evenodd" d="M0.999995 21C0.999995 32.0457 9.9543 41 21 41C32.0457 41 41 32.0457 41 21C41 9.95431 32.0457 1 21 0.999999C9.9543 0.999999 0.999996 9.9543 0.999995 21Z" fill="#29ACD6" fill-opacity="0.35"/>
<path fill-rule="evenodd" clip-rule="evenodd" d="M0.999995 21C0.999995 32.0457 9.9543 41 21 41C32.0457 41 41 32.0457 41 21C41 9.95431 32.0457 1 21 0.999999C9.9543 0.999999 0.999996 9.9543 0.999995 21Z" stroke="url(#paint0_linear_1104_8290)" stroke-linecap="round"/>
</g>
<g filter="url(#filter1_d_1104_8290)">
<path fill-rule="evenodd" clip-rule="evenodd" d="M29 22.5C29.8284 22.5 30.5 21.8284 30.5 21C30.5 20.1716 29.8284 19.5 29 19.5L15.1276 19.5C15.1497 19.4716 15.1727 19.4426 15.1965 19.413C15.7147 18.7677 16.4854 18.0007 17.6352 16.8611L20.4559 14.0654C21.0443 13.4822 21.0485 12.5325 20.4654 11.9441C19.8822 11.3557 18.9325 11.3515 18.3441 11.9346L15.4618 14.7913C14.3894 15.8541 13.4951 16.7404 12.8574 17.5345C12.1885 18.3673 11.6798 19.2426 11.5439 20.309C11.5146 20.5384 11.5 20.7692 11.5 21C11.5 21.2308 11.5146 21.4616 11.5439 21.691C11.6798 22.7574 12.1885 23.6327 12.8574 24.4655C13.4951 25.2596 14.3894 26.1459 15.4618 27.2087L18.3441 30.0654C18.9325 30.6485 19.8822 30.6443 20.4654 30.0559C21.0485 29.4675 21.0443 28.5178 20.4559 27.9346L17.6352 25.1389C16.4854 23.9993 15.7147 23.2323 15.1965 22.587C15.1727 22.5574 15.1497 22.5284 15.1276 22.5L29 22.5Z" fill="url(#paint1_linear_1104_8290)"/>
</g>
<defs>
<filter id="filter0_b_1104_8290" x="-23.5" y="-23.5" width="89" height="89" filterUnits="userSpaceOnUse" color-interpolation-filters="sRGB">
<feFlood flood-opacity="0" result="BackgroundImageFix"/>
<feGaussianBlur in="BackgroundImage" stdDeviation="12"/>
<feComposite in2="SourceAlpha" operator="in" result="effect1_backgroundBlur_1104_8290"/>
<feBlend mode="normal" in="SourceGraphic" in2="effect1_backgroundBlur_1104_8290" result="shape"/>
</filter>
<filter id="filter1_d_1104_8290" x="8.5" y="8.5" width="35" height="35" filterUnits="userSpaceOnUse" color-interpolation-filters="sRGB">
<feFlood flood-opacity="0" result="BackgroundImageFix"/>
<feColorMatrix in="SourceAlpha" type="matrix" values="0 0 0 0 0 0 0 0 0 0 0 0 0 0 0 0 0 0 127 0" result="hardAlpha"/>
<feOffset dx="5" dy="5"/>
<feGaussianBlur stdDeviation="4"/>
<feColorMatrix type="matrix" values="0 0 0 0 0.176471 0 0 0 0 0.556863 0 0 0 0 0.678431 0 0 0 0.5 0"/>
<feBlend mode="normal" in2="BackgroundImageFix" result="effect1_dropShadow_1104_8290"/>
<feBlend mode="normal" in="SourceGraphic" in2="effect1_dropShadow_1104_8290" result="shape"/>
</filter>
<linearGradient id="paint0_linear_1104_8290" x1="41" y1="1" x2="1.02028" y2="41.0203" gradientUnits="userSpaceOnUse">
<stop stop-color="white" stop-opacity="0.25"/>
<stop offset="1" stop-color="white" stop-opacity="0"/>
</linearGradient>
<linearGradient id="paint1_linear_1104_8290" x1="7.45218" y1="21.16" x2="33.1572" y2="47.383" gradientUnits="userSpaceOnUse">
<stop stop-color="white"/>
<stop offset="1" stop-color="white" stop-opacity="0.2"/>
</linearGradient>
</defs>
</svg>
