<svg width="44" height="44" viewBox="0 0 44 44" fill="none" xmlns="http://www.w3.org/2000/svg">
<g filter="url(#filter0_b_1104_8294)">
<path fill-rule="evenodd" clip-rule="evenodd" d="M41 21C41 32.0457 32.0457 41 21 41C9.9543 41 1 32.0457 1 21C1 9.95431 9.9543 1 21 1C32.0457 1 41 9.95431 41 21Z" fill="#29ACD6" fill-opacity="0.35"/>
<path fill-rule="evenodd" clip-rule="evenodd" d="M41 21C41 32.0457 32.0457 41 21 41C9.9543 41 1 32.0457 1 21C1 9.95431 9.9543 1 21 1C32.0457 1 41 9.95431 41 21Z" stroke="url(#paint0_linear_1104_8294)" stroke-linecap="round"/>
</g>
<g filter="url(#filter1_d_1104_8294)">
<path fill-rule="evenodd" clip-rule="evenodd" d="M12.9998 22.5C12.1713 22.5 11.4998 21.8284 11.4998 21C11.4998 20.1716 12.1713 19.5 12.9998 19.5L26.8722 19.5C26.85 19.4716 26.8271 19.4426 26.8033 19.413C26.2851 18.7677 25.5144 18.0007 24.3646 16.8611L21.5438 14.0654C20.9554 13.4822 20.9512 12.5325 21.5344 11.9441C22.1175 11.3557 23.0673 11.3515 23.6557 11.9346L26.538 14.7913C27.6103 15.8541 28.5047 16.7404 29.1424 17.5345C29.8112 18.3673 30.32 19.2426 30.4559 20.309C30.4851 20.5384 30.4998 20.7692 30.4998 21C30.4998 21.2308 30.4851 21.4616 30.4559 21.691C30.32 22.7574 29.8112 23.6327 29.1424 24.4655C28.5047 25.2596 27.6103 26.1459 26.538 27.2087L23.6557 30.0654C23.0673 30.6485 22.1175 30.6443 21.5344 30.0559C20.9512 29.4675 20.9554 28.5178 21.5438 27.9346L24.3646 25.1389C25.5144 23.9993 26.2851 23.2323 26.8033 22.587C26.8271 22.5574 26.85 22.5284 26.8722 22.5L12.9998 22.5Z" fill="url(#paint1_linear_1104_8294)"/>
</g>
<defs>
<filter id="filter0_b_1104_8294" x="-23.5" y="-23.5" width="89" height="89" filterUnits="userSpaceOnUse" color-interpolation-filters="sRGB">
<feFlood flood-opacity="0" result="BackgroundImageFix"/>
<feGaussianBlur in="BackgroundImage" stdDeviation="12"/>
<feComposite in2="SourceAlpha" operator="in" result="effect1_backgroundBlur_1104_8294"/>
<feBlend mode="normal" in="SourceGraphic" in2="effect1_backgroundBlur_1104_8294" result="shape"/>
</filter>
<filter id="filter1_d_1104_8294" x="8.49976" y="8.5" width="35" height="35" filterUnits="userSpaceOnUse" color-interpolation-filters="sRGB">
<feFlood flood-opacity="0" result="BackgroundImageFix"/>
<feColorMatrix in="SourceAlpha" type="matrix" values="0 0 0 0 0 0 0 0 0 0 0 0 0 0 0 0 0 0 127 0" result="hardAlpha"/>
<feOffset dx="5" dy="5"/>
<feGaussianBlur stdDeviation="4"/>
<feColorMatrix type="matrix" values="0 0 0 0 0.176471 0 0 0 0 0.556863 0 0 0 0 0.678431 0 0 0 0.5 0"/>
<feBlend mode="normal" in2="BackgroundImageFix" result="effect1_dropShadow_1104_8294"/>
<feBlend mode="normal" in="SourceGraphic" in2="effect1_dropShadow_1104_8294" result="shape"/>
</filter>
<linearGradient id="paint0_linear_1104_8294" x1="1" y1="1" x2="40.9797" y2="41.0203" gradientUnits="userSpaceOnUse">
<stop stop-color="white" stop-opacity="0.25"/>
<stop offset="1" stop-color="white" stop-opacity="0"/>
</linearGradient>
<linearGradient id="paint1_linear_1104_8294" x1="34.5476" y1="21.16" x2="8.84253" y2="47.383" gradientUnits="userSpaceOnUse">
<stop stop-color="white"/>
<stop offset="1" stop-color="white" stop-opacity="0.2"/>
</linearGradient>
</defs>
</svg>
