<svg width="95" height="57" viewBox="0 0 95 57" fill="none" xmlns="http://www.w3.org/2000/svg">
<path fill-rule="evenodd" clip-rule="evenodd" d="M32.2195 6.09569C33.0681 6.80284 34.3292 6.68822 35.0363 5.83968C35.7435 4.99114 35.6289 3.73001 34.7803 3.02286C32.8281 1.39592 29.3524 0.33101 25.9687 0.0660193C22.5668 -0.200385 18.5932 0.287863 15.7721 2.48236C14.9002 3.16055 14.7432 4.41711 15.4214 5.28897C16.0996 6.16082 17.3561 6.31782 18.228 5.63963C19.9069 4.33364 22.6833 3.82098 25.6564 4.05381C28.6475 4.28805 31.1718 5.22252 32.2195 6.09569ZM14.3974 6.92607C14.7305 7.92549 14.2308 9.002 13.2747 9.40248C13.2479 9.42075 13.1989 9.45548 13.1253 9.51359C12.9394 9.66032 12.6886 9.88182 12.3756 10.1809C11.7531 10.7759 10.9821 11.5842 10.1528 12.4937C8.49898 14.3071 6.69679 16.4299 5.54386 17.8299C4.84168 18.6826 3.58124 18.8046 2.72859 18.1024C1.87593 17.4002 1.75396 16.1398 2.45614 15.2871C3.63654 13.8538 5.48436 11.6766 7.19724 9.79836C8.05118 8.86197 8.89273 7.97657 9.61189 7.28924C9.96976 6.94721 10.322 6.63042 10.6466 6.37416C10.9117 6.16483 11.3575 5.83117 11.8675 5.66116C12.9154 5.31186 14.0481 5.87818 14.3974 6.92607ZM44.9999 27.06C43.8953 27.06 42.9999 26.1646 42.9999 25.06C42.9999 21.8264 42.3033 18.4697 41.0991 15.6599C39.8775 12.8092 38.2392 10.7579 36.5284 9.80746C35.5629 9.271 35.215 8.05338 35.7515 7.08783C36.288 6.12228 37.5056 5.77444 38.4711 6.3109C41.2606 7.86073 43.3724 10.8097 44.7757 14.0843C46.1966 17.3998 46.9999 21.2933 46.9999 25.06C46.9999 26.1646 46.1045 27.06 44.9999 27.06ZM11.1866 19.1345L11.1824 19.141L11.1819 19.1418C10.5844 20.0703 9.34737 20.339 8.41848 19.7419C7.48934 19.1446 7.22034 17.9071 7.81764 16.978L9.44457 18.0239C7.81765 16.978 7.81793 16.9775 7.81823 16.9771L7.81892 16.976L7.82062 16.9734L7.82526 16.9662L7.83953 16.9443C7.85123 16.9264 7.86732 16.902 7.88766 16.8715C7.92832 16.8105 7.98608 16.725 8.05995 16.6186C8.20754 16.4058 8.4203 16.1082 8.69039 15.7537C9.228 15.048 10.0056 14.1005 10.9608 13.1453C12.7653 11.3407 15.6438 9.0595 19 9.0595C20.1046 9.0595 21 9.95493 21 11.0595C21 12.1641 20.1046 13.0595 19 13.0595C17.3562 13.0595 15.4847 14.2782 13.7892 15.9737C12.9944 16.7685 12.3345 17.5709 11.8721 18.1778C11.6422 18.4796 11.4643 18.7288 11.3463 18.8989C11.2874 18.9838 11.2436 19.0487 11.2159 19.0903L11.1866 19.1345ZM34.4158 17.0346C31.57 13.179 27.518 11.9878 24.5476 12.0585C23.4433 12.0848 22.5269 11.2109 22.5006 10.1067C22.4743 9.00242 23.3481 8.08593 24.4524 8.05964C28.482 7.96369 33.88 9.57286 37.6342 14.6592C41.3821 19.7371 43.2227 27.9129 40.9683 40.4147C40.7722 41.5017 39.7321 42.224 38.6451 42.028C37.558 41.832 36.8357 40.7919 37.0317 39.7048C39.1773 27.8066 37.2679 20.8988 34.4158 17.0346ZM8.78885 23.4539C9.28283 22.466 8.88238 21.2646 7.89443 20.7706C6.90647 20.2767 5.70512 20.6771 5.21115 21.6651C4.87852 22.3303 4.5698 22.5601 4.34635 22.6833C4.09044 22.8245 3.87144 22.8839 3.45611 22.9965C3.31378 23.0351 3.14839 23.0799 2.95056 23.1364C1.88849 23.4399 1.2735 24.5469 1.57695 25.6089C1.8804 26.671 2.98737 27.286 4.04944 26.9825C4.11174 26.9647 4.18875 26.9445 4.27771 26.9212L4.27786 26.9211L4.27818 26.921L4.27853 26.9209L4.27875 26.9209L4.27895 26.9208C4.74926 26.7973 5.55215 26.5865 6.27865 26.1857C7.26353 25.6423 8.12148 24.7887 8.78885 23.4539ZM14.5747 20.1438C15.6327 20.4612 16.233 21.5762 15.9157 22.6342C15.0048 25.6703 12.7913 28.2537 10.296 30.0559C7.80987 31.8514 4.78341 33.0595 2 33.0595C0.89543 33.0595 0 32.1641 0 31.0595C0 29.9549 0.89543 29.0595 2 29.0595C3.71659 29.0595 5.94013 28.2676 7.95402 26.8131C9.95867 25.3653 11.4952 23.4487 12.0843 21.4848C12.4017 20.4268 13.5167 19.8265 14.5747 20.1438ZM17.866 31.7792C18.2635 30.7487 17.7503 29.591 16.7197 29.1935C15.6892 28.796 14.5315 29.3092 14.134 30.3398C12.9935 33.2966 9.85975 35.5595 5 35.5595C3.89543 35.5595 3 36.4549 3 37.5595C3 38.6641 3.89543 39.5595 5 39.5595C11.1402 39.5595 16.0065 36.6001 17.866 31.7792ZM21.5257 17.9708C20.4527 18.3009 19.4952 18.8924 18.9142 19.4734C18.1332 20.2544 16.8668 20.2544 16.0858 19.4734C15.3047 18.6923 15.3047 17.426 16.0858 16.645C17.1714 15.5593 18.714 14.6508 20.3493 14.1477C21.9768 13.6469 23.9328 13.4783 25.7427 14.2022C26.7683 14.6124 27.2672 15.7763 26.857 16.8019C26.4468 17.8275 25.2829 18.3263 24.2573 17.9162C23.5672 17.6401 22.6066 17.6382 21.5257 17.9708ZM30.84 39.3794C30.7736 39.5635 30.7119 39.7382 30.6529 39.9053L30.6526 39.9061C30.3573 40.7423 30.1285 41.3898 29.7156 42.0915C29.2516 42.8799 28.5172 43.7785 27.1034 44.8247C26.2155 45.4818 26.0284 46.7342 26.6854 47.6221C27.3425 48.51 28.5949 48.6972 29.4828 48.0401C31.2758 46.7133 32.3948 45.4255 33.163 44.1202C33.7894 43.0558 34.1583 42.002 34.4533 41.1595L34.4534 41.1592C34.5052 41.0111 34.5548 40.8696 34.6031 40.7357C34.9776 39.6965 34.4388 38.5505 33.3996 38.176C32.3605 37.8015 31.2145 38.3403 30.84 39.3794ZM27.9636 16.2791C28.6707 15.4306 29.9318 15.3159 30.7804 16.0231C34.334 18.9844 38.1303 25.847 35.9456 35.0227C35.6898 36.0973 34.6113 36.761 33.5368 36.5051C32.4622 36.2493 31.7985 35.1708 32.0544 34.0963C33.8697 26.472 30.666 21.1346 28.2196 19.0959C27.3711 18.3888 27.2564 17.1277 27.9636 16.2791ZM24.9488 29.5092C25.1972 28.4329 24.526 27.3591 23.4497 27.1107C22.3734 26.8623 21.2996 27.5335 21.0512 28.6098C19.7275 34.3457 14.3006 39.836 8.41183 41.6479C7.3561 41.9728 6.7636 43.0919 7.08844 44.1477C7.41328 45.2034 8.53245 45.7959 9.58817 45.4711C16.6994 43.283 23.2725 36.7733 24.9488 29.5092ZM28.1534 30.0654C29.2547 30.1501 30.0788 31.1116 29.9941 32.2129C29.4443 39.3607 25.5758 45.4781 19.4577 48.8153C18.488 49.3442 17.2731 48.9869 16.7442 48.0172C16.2153 47.0475 16.5726 45.8326 17.5423 45.3037C22.4242 42.6409 25.5557 37.7583 26.0059 31.9061C26.0906 30.8048 27.0521 29.9807 28.1534 30.0654ZM19.8726 26.7607C20.3738 25.4245 21.645 24.4472 22.8731 24.2937C23.4478 24.2219 24.007 24.3277 24.5238 24.655C25.0478 24.9867 25.6538 25.6275 26.1539 26.8276C26.5788 27.8472 27.7498 28.3293 28.7694 27.9044C29.7889 27.4795 30.271 26.3085 29.8461 25.2889C29.0962 23.4896 28.0147 22.1309 26.6637 21.2754C25.3055 20.4155 23.8022 20.1465 22.3769 20.3246C19.605 20.6711 17.1262 22.6932 16.1274 25.3559C15.7395 26.3901 16.2634 27.5429 17.2976 27.9309C18.3318 28.3188 19.4846 27.7949 19.8726 26.7607Z" fill="url(#paint0_linear_867_19845)" fill-opacity="0.75"/>
<g filter="url(#filter0_b_867_19845)">
<path d="M11.44 21.415C11.44 22.919 11.08 24.111 10.36 24.991C9.64 25.855 8.456 26.287 6.808 26.287C5.176 26.287 3.68 25.991 2.32 25.399L2.752 23.911C4.032 24.359 5.344 24.583 6.688 24.583C7.632 24.583 8.32 24.351 8.752 23.887C9.2 23.423 9.424 22.711 9.424 21.751C9.424 20.791 9.304 20.063 9.064 19.567C8.824 19.071 8.32 18.767 7.552 18.655L5.176 18.319C4.056 18.143 3.304 17.687 2.92 16.951C2.552 16.215 2.368 15.103 2.368 13.615C2.368 12.127 2.752 10.975 3.52 10.159C4.304 9.32702 5.376 8.91102 6.736 8.91102C8.112 8.91102 9.488 9.16702 10.864 9.67902L10.432 11.119C9.232 10.783 8.144 10.615 7.168 10.615C6.208 10.615 5.504 10.815 5.056 11.215C4.608 11.599 4.384 12.327 4.384 13.399C4.384 14.471 4.496 15.239 4.72 15.703C4.96 16.167 5.432 16.447 6.136 16.543L8.392 16.879C9.416 17.039 10.176 17.463 10.672 18.151C11.184 18.823 11.44 19.911 11.44 21.415ZM22.6056 21.919H20.3496L17.1816 12.487H17.0376L16.7256 25.999H14.7336L15.2376 9.19902H17.8776L21.4056 19.807H21.5496L25.0776 9.19902H27.7176L28.2216 25.999H26.2296L25.9176 12.487H25.7736L22.6056 21.919ZM33.1317 25.999H31.0197L35.0037 9.19902H38.5077L42.4917 25.999H40.3797L39.3957 21.751H34.1157L33.1317 25.999ZM38.9877 20.071L36.8277 10.735H36.6837L34.4997 20.071H38.9877ZM49.1121 19.567H47.5521V25.999H45.4881V9.19902H49.1121C51.0321 9.19902 52.4001 9.59102 53.2161 10.375C54.0321 11.143 54.4401 12.479 54.4401 14.383C54.4401 15.695 54.2481 16.735 53.8641 17.503C53.4961 18.255 52.9041 18.791 52.0881 19.111L54.8481 25.999H52.7361L50.0961 19.543C49.8881 19.559 49.5601 19.567 49.1121 19.567ZM52.3521 14.911V13.855C52.3521 13.407 52.3441 13.079 52.3281 12.871C52.3121 12.647 52.2481 12.383 52.1361 12.079C52.0401 11.775 51.8801 11.551 51.6561 11.407C51.0961 11.071 50.2561 10.903 49.1361 10.903H47.5521V17.863H49.1361C50.2561 17.863 51.0961 17.695 51.6561 17.359C51.8801 17.215 52.0401 16.991 52.1361 16.687C52.2481 16.383 52.3121 16.127 52.3281 15.919C52.3441 15.695 52.3521 15.359 52.3521 14.911ZM56.5291 10.879V9.19902H65.6491V10.879H62.1211V25.999H60.0571V10.879H56.5291ZM3.16 35.199H6.784C8.704 35.199 10.072 35.607 10.888 36.423C11.704 37.239 12.112 38.639 12.112 40.623C12.112 42.607 11.704 44.007 10.888 44.823C10.072 45.639 8.704 46.047 6.784 46.047H5.224V51.999H3.16V35.199ZM10.024 41.199V40.047C10.024 39.567 10.016 39.215 10 38.991C9.984 38.751 9.92 38.471 9.808 38.151C9.712 37.831 9.552 37.599 9.328 37.455C8.752 37.087 7.912 36.903 6.808 36.903H5.224V44.343H6.808C7.912 44.343 8.752 44.159 9.328 43.791C9.728 43.535 9.952 43.023 10 42.255C10.016 42.031 10.024 41.679 10.024 41.199ZM23.7687 51.735C23.3847 51.879 22.9127 52.007 22.3527 52.119C21.8087 52.231 21.2167 52.287 20.5767 52.287C19.9367 52.287 19.4007 52.263 18.9687 52.215C18.5527 52.183 18.1767 52.111 17.8407 51.999C17.5047 51.871 17.2087 51.751 16.9527 51.639C16.6967 51.527 16.4647 51.335 16.2567 51.063C16.0647 50.791 15.9047 50.559 15.7767 50.367C15.6487 50.175 15.5367 49.863 15.4407 49.431C15.3607 48.999 15.2967 48.639 15.2487 48.351C15.2007 48.047 15.1687 47.583 15.1527 46.959C15.1207 45.743 15.1047 44.599 15.1047 43.527C15.1047 42.455 15.1127 41.647 15.1287 41.103C15.1447 40.559 15.1767 39.903 15.2247 39.135C15.2887 38.367 15.3927 37.823 15.5367 37.503C15.6807 37.167 15.8727 36.791 16.1127 36.375C16.3527 35.943 16.6647 35.647 17.0487 35.487C18.0727 35.103 19.1527 34.911 20.2887 34.911C21.4247 34.911 22.3207 35.031 22.9767 35.271C23.6487 35.495 24.1767 35.767 24.5607 36.087C24.9447 36.407 25.2167 36.999 25.3767 37.863C25.5527 38.727 25.6567 39.511 25.6887 40.215C25.7207 40.919 25.7367 41.951 25.7367 43.311C25.7367 44.655 25.7287 45.599 25.7127 46.143C25.6967 46.687 25.6567 47.343 25.5927 48.111C25.5447 48.879 25.4487 49.431 25.3047 49.767C25.1607 50.087 24.9687 50.455 24.7287 50.871C24.4887 51.287 24.1687 51.575 23.7687 51.735ZM23.6487 47.367V39.831C23.6487 38.551 23.5127 37.775 23.2407 37.503C22.8407 37.071 22.4007 36.815 21.9207 36.735C21.4567 36.655 20.9607 36.615 20.4327 36.615C19.9047 36.615 19.4487 36.647 19.0647 36.711C18.6807 36.775 18.3687 36.887 18.1287 37.047C17.9047 37.207 17.7207 37.359 17.5767 37.503C17.4487 37.647 17.3527 37.871 17.2887 38.175C17.2247 38.559 17.1927 39.111 17.1927 39.831V47.367C17.1927 48.647 17.3207 49.423 17.5767 49.695C17.9927 50.127 18.4407 50.383 18.9207 50.463C19.4007 50.543 19.9047 50.583 20.4327 50.583C20.9607 50.583 21.4087 50.551 21.7767 50.487C22.1607 50.423 22.4647 50.311 22.6887 50.151C22.9287 49.991 23.1127 49.839 23.2407 49.695C23.3847 49.551 23.4807 49.327 23.5287 49.023C23.6087 48.639 23.6487 48.087 23.6487 47.367ZM29.6913 51.999V35.199H31.7553V50.319H37.1793V51.999H29.6913ZM42.6648 51.999H40.7448V46.599L36.5688 35.199H38.6808L41.6328 44.343H41.7768L44.7288 35.199H46.8408L42.6648 46.599V51.999ZM58.7577 51.375C58.2937 51.631 57.6457 51.847 56.8137 52.023C55.9817 52.199 55.2617 52.287 54.6537 52.287C54.0457 52.287 53.5257 52.263 53.0937 52.215C52.6777 52.183 52.3017 52.111 51.9657 51.999C51.6297 51.871 51.3337 51.751 51.0777 51.639C50.8217 51.527 50.5897 51.335 50.3817 51.063C50.1897 50.791 50.0297 50.559 49.9017 50.367C49.7737 50.175 49.6617 49.863 49.5657 49.431C49.4857 48.999 49.4217 48.639 49.3737 48.351C49.3257 48.047 49.2937 47.583 49.2777 46.959C49.2457 45.743 49.2297 44.599 49.2297 43.527C49.2297 42.455 49.2377 41.647 49.2537 41.103C49.2697 40.559 49.3017 39.903 49.3497 39.135C49.4137 38.367 49.5177 37.823 49.6617 37.503C49.8057 37.167 49.9977 36.791 50.2377 36.375C50.4777 35.943 50.7897 35.647 51.1737 35.487C52.1977 35.103 53.3177 34.911 54.5337 34.911C55.7657 34.911 56.9657 35.087 58.1337 35.439L57.7737 36.999C56.7017 36.743 55.7417 36.615 54.8937 36.615C54.0457 36.615 53.4057 36.671 52.9737 36.783C52.5577 36.895 52.2377 37.023 52.0137 37.167C51.7897 37.311 51.6217 37.543 51.5097 37.863C51.4137 38.183 51.3577 38.463 51.3417 38.703C51.3257 38.927 51.3177 39.279 51.3177 39.759V47.367C51.3177 48.647 51.4457 49.423 51.7017 49.695C52.1177 50.127 52.5657 50.383 53.0457 50.463C53.5257 50.543 54.1017 50.583 54.7737 50.583C55.4457 50.583 56.1337 50.511 56.8377 50.367V44.919H54.5577V43.479H58.7577V51.375ZM62.8319 51.999V35.199H64.8959V50.319H70.3199V51.999H62.8319ZM81.2609 51.735C80.8769 51.879 80.4049 52.007 79.8449 52.119C79.3009 52.231 78.7089 52.287 78.0689 52.287C77.4289 52.287 76.8929 52.263 76.4609 52.215C76.0449 52.183 75.6689 52.111 75.3329 51.999C74.9969 51.871 74.7009 51.751 74.4449 51.639C74.1889 51.527 73.9569 51.335 73.7489 51.063C73.5569 50.791 73.3969 50.559 73.2689 50.367C73.1409 50.175 73.0289 49.863 72.9329 49.431C72.8529 48.999 72.7889 48.639 72.7409 48.351C72.6929 48.047 72.6609 47.583 72.6449 46.959C72.6129 45.743 72.5969 44.599 72.5969 43.527C72.5969 42.455 72.6049 41.647 72.6209 41.103C72.6369 40.559 72.6689 39.903 72.7169 39.135C72.7809 38.367 72.8849 37.823 73.0289 37.503C73.1729 37.167 73.3649 36.791 73.6049 36.375C73.8449 35.943 74.1569 35.647 74.5409 35.487C75.5649 35.103 76.6449 34.911 77.7809 34.911C78.9169 34.911 79.8129 35.031 80.4689 35.271C81.1409 35.495 81.6689 35.767 82.0529 36.087C82.4369 36.407 82.7089 36.999 82.8689 37.863C83.0449 38.727 83.1489 39.511 83.1809 40.215C83.2129 40.919 83.2289 41.951 83.2289 43.311C83.2289 44.655 83.2209 45.599 83.2049 46.143C83.1889 46.687 83.1489 47.343 83.0849 48.111C83.0369 48.879 82.9409 49.431 82.7969 49.767C82.6529 50.087 82.4609 50.455 82.2209 50.871C81.9809 51.287 81.6609 51.575 81.2609 51.735ZM81.1409 47.367V39.831C81.1409 38.551 81.0049 37.775 80.7329 37.503C80.3329 37.071 79.8929 36.815 79.4129 36.735C78.9489 36.655 78.4529 36.615 77.9249 36.615C77.3969 36.615 76.9409 36.647 76.5569 36.711C76.1729 36.775 75.8609 36.887 75.6209 37.047C75.3969 37.207 75.2129 37.359 75.0689 37.503C74.9409 37.647 74.8449 37.871 74.7809 38.175C74.7169 38.559 74.6849 39.111 74.6849 39.831V47.367C74.6849 48.647 74.8129 49.423 75.0689 49.695C75.4849 50.127 75.9329 50.383 76.4129 50.463C76.8929 50.543 77.3969 50.583 77.9249 50.583C78.4529 50.583 78.9009 50.551 79.2689 50.487C79.6529 50.423 79.9569 50.311 80.1809 50.151C80.4209 49.991 80.6049 49.839 80.7329 49.695C80.8769 49.551 80.9729 49.327 81.0209 49.023C81.1009 48.639 81.1409 48.087 81.1409 47.367ZM85.2634 36.879V35.199H94.3834V36.879H90.8554V51.999H88.7914V36.879H85.2634Z" fill="black"/>
</g>
<defs>
<filter id="filter0_b_867_19845" x="-1.67993" y="4.91113" width="100.063" height="51.376" filterUnits="userSpaceOnUse" color-interpolation-filters="sRGB">
<feFlood flood-opacity="0" result="BackgroundImageFix"/>
<feGaussianBlur in="BackgroundImage" stdDeviation="2"/>
<feComposite in2="SourceAlpha" operator="in" result="effect1_backgroundBlur_867_19845"/>
<feBlend mode="normal" in="SourceGraphic" in2="effect1_backgroundBlur_867_19845" result="shape"/>
</filter>
<linearGradient id="paint0_linear_867_19845" x1="32.5" y1="0.0595708" x2="4.5" y2="55.5596" gradientUnits="userSpaceOnUse">
<stop stop-color="#1859AB"/>
<stop offset="1" stop-color="#8EF4FF"/>
</linearGradient>
</defs>
</svg>
