<svg width="44" height="43" viewBox="0 0 44 43" fill="none" xmlns="http://www.w3.org/2000/svg">
<ellipse cx="21.5655" cy="21.4805" rx="19.075" ry="19" fill="url(#paint0_linear_646_1066)"/>
<path d="M32.3773 14.0574C32.552 12.9632 31.7202 11.9764 30.7169 12.4036L10.7924 20.6728C10.0729 20.9792 10.0461 22.0962 10.7924 22.3267L14.9433 23.9805C15.7299 24.2234 15.9169 23.6137 16.6037 23.1536L26.566 17.3651C26.8462 17.1774 26.8053 17.1258 26.566 17.3651L19.9245 24.8074C19.2757 25.4561 19.1441 25.9867 19.9245 26.4613L27.3962 31.4228C28.236 31.9335 29.7296 31.58 29.8867 30.5959L32.3773 14.0574Z" fill="white"/>
<defs>
<linearGradient id="paint0_linear_646_1066" x1="21.5655" y1="2.48047" x2="21.5655" y2="40.4805" gradientUnits="userSpaceOnUse">
<stop stop-color="#37BBFE"/>
<stop offset="1" stop-color="#007DBB"/>
</linearGradient>
</defs>
</svg>
