<svg width="43" height="42" viewBox="0 0 43 42" fill="none" xmlns="http://www.w3.org/2000/svg">
<rect x="2.48071" y="2.42285" width="38.0385" height="37.1538" rx="6" fill="#2789F6"/>
<path d="M31.4231 24.2307C31.1292 23.8373 31.2625 23.8266 31.4231 23.4231C31.8239 22.3463 37.1626 15.3461 34.7308 15.3461C33.0598 15.368 31.3713 15.3461 29.7693 15.3461C29.4719 15.4176 29.0628 15.8405 28.9424 16.1538C28.0056 18.285 27.3148 20.9439 25.6347 22.6154C25.4136 22.7912 25.0595 22.6804 24.8078 22.6154C23.6292 21.3912 24.6975 17.0033 23.9808 15.3461C23.8396 15.0218 23.4702 14.6209 23.1539 14.5384C21.5539 14.1622 17.9617 14.5888 17.3654 15.3461C17.195 15.5626 17.2424 15.3267 17.3654 15.3461C17.9335 15.4346 17.9557 15.8194 18.1924 16.1538C18.6389 17.124 19.5075 22.6154 18.1924 22.6154C16.8772 22.6154 14.6404 17.5598 14.0578 16.1538C13.9027 15.7305 13.6467 15.4178 13.2308 15.3461H9.09622C8.41232 15.3461 8.02689 15.4833 8.2693 16.1538C10.2958 21.1167 14.6985 30.9331 21.5001 30.6923C22.1814 30.6923 23.4487 30.4674 23.9808 29.8846C24.7121 28.9274 23.5538 27.304 24.8078 26.6538C25.124 26.4878 25.363 27.2574 25.6347 27.4615C27.0295 28.5093 28.0492 30.134 29.7693 30.6923C30.0717 30.7906 30.3687 30.7414 30.5962 30.6923H33.9039C34.5788 30.6923 35.6974 30.6806 35.5578 29.8846C35.0278 28.1775 32.9069 25.8742 31.4231 24.2307Z" fill="white"/>
</svg>
