<svg width="30" height="34" viewBox="0 0 30 34" fill="none" xmlns="http://www.w3.org/2000/svg">
<g filter="url(#filter0_b_686_7287)">
<mask id="path-1-outside-1_686_7287" maskUnits="userSpaceOnUse" x="0" y="0.483398" width="22" height="23" fill="black">
<rect fill="white" y="0.483398" width="22" height="23"/>
<path fill-rule="evenodd" clip-rule="evenodd" d="M11.0343 1.51757C12.4528 1.51757 14.1424 1.44068 15.0343 1.51757C15.9429 1.59589 16.3631 2.15265 17.0343 2.51757C17.977 3.03006 18.5196 3.57901 19.0343 4.51757C19.4008 5.18588 19.9557 5.61299 20.0343 6.51757C20.1115 7.40562 20.0343 9.10528 20.0343 10.5176V13.5176C20.0343 13.5747 20.0346 13.4873 20.0343 13.5176C20.0134 15.4506 18.5481 16.5335 17.0343 17.5176C16.1702 18.0794 15.1394 18.5057 14.0343 18.5176C14.0041 18.5179 14.0912 18.5176 14.0343 18.5176C13.969 18.5179 14.0799 18.471 14.0343 18.5176V19.5176C13.4053 20.1683 12.507 20.1455 12.0343 20.5176C11.536 20.9098 11.6798 21.5176 11.0343 21.5176C10.3888 21.5176 9.53262 20.9098 9.03432 20.5176C8.56163 20.1455 7.66333 20.1683 7.03432 19.5176V18.5176C6.98879 18.471 7.0996 18.5179 7.03432 18.5176C7.02366 18.5176 7.04354 18.5176 7.03432 18.5176C6.99437 18.5176 7.0589 18.5178 7.03432 18.5176C5.92922 18.5057 4.89848 18.0794 4.03432 17.5176C2.52059 16.5335 1.05528 15.4506 1.03432 13.5176C1.034 13.4874 1.03432 13.5743 1.03432 13.5176V10.5176C1.03432 9.10526 0.957099 7.40563 1.03432 6.51757C1.11298 5.61299 1.66781 5.18588 2.03432 4.51757C2.54905 3.57901 3.09167 3.03006 4.03432 2.51757C4.70555 2.15265 5.12579 1.59589 6.03432 1.51757C6.92625 1.44068 8.61584 1.51757 10.0343 1.51757H11.0343Z"/>
</mask>
<path fill-rule="evenodd" clip-rule="evenodd" d="M11.0343 1.51757C12.4528 1.51757 14.1424 1.44068 15.0343 1.51757C15.9429 1.59589 16.3631 2.15265 17.0343 2.51757C17.977 3.03006 18.5196 3.57901 19.0343 4.51757C19.4008 5.18588 19.9557 5.61299 20.0343 6.51757C20.1115 7.40562 20.0343 9.10528 20.0343 10.5176V13.5176C20.0343 13.5747 20.0346 13.4873 20.0343 13.5176C20.0134 15.4506 18.5481 16.5335 17.0343 17.5176C16.1702 18.0794 15.1394 18.5057 14.0343 18.5176C14.0041 18.5179 14.0912 18.5176 14.0343 18.5176C13.969 18.5179 14.0799 18.471 14.0343 18.5176V19.5176C13.4053 20.1683 12.507 20.1455 12.0343 20.5176C11.536 20.9098 11.6798 21.5176 11.0343 21.5176C10.3888 21.5176 9.53262 20.9098 9.03432 20.5176C8.56163 20.1455 7.66333 20.1683 7.03432 19.5176V18.5176C6.98879 18.471 7.0996 18.5179 7.03432 18.5176C7.02366 18.5176 7.04354 18.5176 7.03432 18.5176C6.99437 18.5176 7.0589 18.5178 7.03432 18.5176C5.92922 18.5057 4.89848 18.0794 4.03432 17.5176C2.52059 16.5335 1.05528 15.4506 1.03432 13.5176C1.034 13.4874 1.03432 13.5743 1.03432 13.5176V10.5176C1.03432 9.10526 0.957099 7.40563 1.03432 6.51757C1.11298 5.61299 1.66781 5.18588 2.03432 4.51757C2.54905 3.57901 3.09167 3.03006 4.03432 2.51757C4.70555 2.15265 5.12579 1.59589 6.03432 1.51757C6.92625 1.44068 8.61584 1.51757 10.0343 1.51757H11.0343Z" fill="#B5ECFF"/>
<path d="M15.0343 1.51757L15.1202 0.521267V0.521267L15.0343 1.51757ZM11.0343 1.51757V2.51757H11.0343L11.0343 1.51757ZM17.0343 2.51757L16.5567 3.39613V3.39613L17.0343 2.51757ZM19.0343 4.51757L18.1575 4.99843L18.1575 4.99843L19.0343 4.51757ZM20.0343 6.51757L19.0381 6.6042V6.6042L20.0343 6.51757ZM20.0343 10.5176L19.0343 10.5176V10.5176H20.0343ZM20.0343 13.5176L21.0343 13.5284V13.5284L20.0343 13.5176ZM17.0343 17.5176L17.5794 18.356H17.5794L17.0343 17.5176ZM14.0343 18.5176L14.045 19.5175H14.0451L14.0343 18.5176ZM14.0343 18.5176L13.3192 17.8186L13.0343 18.11V18.5176H14.0343ZM14.0343 19.5176L14.7533 20.2126L15.0343 19.9219V19.5176H14.0343ZM12.0343 20.5176L11.4158 19.7318L11.4158 19.7318L12.0343 20.5176ZM9.03432 20.5176L9.65283 19.7318L9.65283 19.7318L9.03432 20.5176ZM7.03432 19.5176H6.03432V19.9219L6.31532 20.2126L7.03432 19.5176ZM7.03432 18.5176L7.03409 19.5176H7.03432V18.5176ZM7.03432 18.5176L7.02358 19.5175H7.02363L7.03432 18.5176ZM4.03432 17.5176L3.48927 18.356H3.48927L4.03432 17.5176ZM1.03432 13.5176L0.0343813 13.5284L0.0343813 13.5284L1.03432 13.5176ZM1.03432 10.5176H2.03432V10.5176L1.03432 10.5176ZM1.03432 6.51757L0.0380821 6.43094L1.03432 6.51757ZM2.03432 4.51757L1.15752 4.03671L2.03432 4.51757ZM4.03432 2.51757L4.51196 3.39613H4.51196L4.03432 2.51757ZM6.03432 1.51757L5.94844 0.521267L6.03432 1.51757ZM10.0343 1.51757L10.0343 2.51757H10.0343V1.51757ZM15.1202 0.521267C14.1739 0.439696 12.3566 0.517567 11.0343 0.517572L11.0343 2.51757C12.549 2.51757 14.1108 2.44167 14.9484 2.51388L15.1202 0.521267ZM17.512 1.63902C17.3972 1.57663 17.2837 1.50091 17.1441 1.40214C17.0181 1.31296 16.8404 1.18232 16.6643 1.06906C16.2766 0.819656 15.7883 0.578857 15.1202 0.521267L14.9484 2.51388C15.1889 2.53461 15.365 2.61135 15.5823 2.75113C15.7088 2.83246 15.8187 2.91434 15.9887 3.03463C16.1451 3.14533 16.3358 3.27605 16.5567 3.39613L17.512 1.63902ZM19.9111 4.03671C19.3063 2.93384 18.6268 2.24511 17.512 1.63902L16.5567 3.39613C17.3272 3.81502 17.7329 4.22419 18.1575 4.99843L19.9111 4.03671ZM21.0306 6.43094C20.9727 5.76585 20.7329 5.27758 20.4843 4.88955C20.3707 4.71223 20.2409 4.53515 20.1506 4.40737C20.0511 4.26669 19.9745 4.15227 19.9111 4.03671L18.1575 4.99843C18.2774 5.21702 18.4076 5.40661 18.5177 5.56224C18.6369 5.73077 18.7195 5.84231 18.8002 5.96838C18.9404 6.18713 19.0173 6.36471 19.0381 6.6042L21.0306 6.43094ZM21.0343 10.5176C21.0343 9.20207 21.1126 7.37382 21.0306 6.43094L19.0381 6.6042C19.1105 7.43741 19.0343 9.00848 19.0343 10.5176L21.0343 10.5176ZM21.0343 13.5176V10.5176H19.0343V13.5176H21.0343ZM21.0343 13.5284C21.0343 13.5271 21.0343 13.5273 21.0343 13.5282C21.0343 13.5287 21.0342 13.5302 21.0342 13.5322C21.0342 13.5333 21.0341 13.535 21.0341 13.5371C21.034 13.5389 21.0339 13.5427 21.0338 13.5474C21.0337 13.5499 21.0335 13.5536 21.0333 13.5581C21.0332 13.5605 21.0331 13.5634 21.0329 13.5668C21.0327 13.5702 21.0324 13.5747 21.032 13.5801C21.0317 13.5852 21.0311 13.5931 21.0302 13.6028C21.0298 13.607 21.0289 13.6163 21.0283 13.6214C21.0276 13.6277 21.0258 13.6421 21.0247 13.65C21.0232 13.6606 21.0191 13.6854 21.0165 13.6997C21.0123 13.7204 20.9994 13.7733 20.9902 13.8052C20.971 13.8614 20.8895 14.0295 20.8165 14.1341C20.572 14.3542 19.8237 14.4885 19.42 14.3C19.2739 14.1603 19.1216 13.9193 19.0907 13.8417C19.0773 13.8005 19.0595 13.7336 19.0541 13.7082C19.0508 13.6912 19.0459 13.662 19.0441 13.6499C19.0429 13.6407 19.0409 13.6245 19.0401 13.6175C19.0395 13.6118 19.0385 13.6016 19.0381 13.597C19.0378 13.5931 19.0373 13.5861 19.037 13.5828C19.0365 13.5752 19.0361 13.5689 19.0359 13.5646C19.0354 13.5561 19.0352 13.5494 19.035 13.5458C19.0349 13.5418 19.0348 13.5384 19.0348 13.5362C19.0346 13.5318 19.0346 13.5284 19.0346 13.5266C19.0345 13.5246 19.0345 13.523 19.0345 13.522C19.0345 13.52 19.0345 13.5185 19.0345 13.5179C19.0345 13.5166 19.0345 13.516 19.0345 13.5165C19.0345 13.5167 19.0345 13.5173 19.0345 13.5181C19.0345 13.5198 19.0345 13.5219 19.0345 13.5239C19.0344 13.5249 19.0344 13.5257 19.0344 13.5264C19.0344 13.5271 19.0344 13.5274 19.0344 13.5273C19.0344 13.5272 19.0344 13.5268 19.0344 13.5262C19.0345 13.5258 19.0345 13.5244 19.0345 13.5225C19.0345 13.5215 19.0345 13.5199 19.0346 13.5178C19.0346 13.5162 19.0347 13.5118 19.0349 13.5062C19.0349 13.5035 19.0351 13.4982 19.0354 13.4915C19.0356 13.4881 19.0358 13.4829 19.0362 13.4766C19.0364 13.4739 19.0368 13.4679 19.037 13.4646C19.0373 13.4605 19.0381 13.4514 19.0385 13.4463C19.0392 13.4398 19.0408 13.4244 19.0418 13.4156C19.0434 13.4031 19.0482 13.3717 19.0516 13.3527C19.0581 13.3208 19.0846 13.2246 19.1077 13.1615C19.1973 12.9903 19.8378 12.557 20.4263 12.6174C20.7106 12.8007 20.9596 13.1581 20.9926 13.2516C21.004 13.2929 21.0181 13.3578 21.0221 13.3811C21.0243 13.3957 21.0275 13.4206 21.0287 13.4307C21.0294 13.4381 21.0306 13.4511 21.0311 13.4568C21.0315 13.4612 21.032 13.4692 21.0323 13.4728C21.0325 13.4757 21.0328 13.4811 21.0329 13.4836C21.0332 13.4894 21.0334 13.4941 21.0336 13.4973C21.0338 13.5036 21.034 13.5085 21.034 13.5111C21.0342 13.5165 21.0342 13.5206 21.0342 13.5222C21.0343 13.5258 21.0343 13.5284 21.0343 13.529C21.0343 13.5305 21.0343 13.5312 21.0343 13.5301C21.0343 13.5283 21.0343 13.5244 21.0343 13.5176H19.0343C19.0343 13.525 19.0343 13.5309 19.0343 13.5354C19.0343 13.5374 19.0344 13.5404 19.0344 13.5435C19.0344 13.5447 19.0344 13.548 19.0345 13.552C19.0345 13.5537 19.0346 13.558 19.0347 13.5635C19.0348 13.5662 19.0349 13.5712 19.0352 13.5775C19.0353 13.5807 19.0355 13.5855 19.0358 13.5912C19.036 13.5937 19.0363 13.5991 19.0365 13.6021C19.0367 13.6057 19.0373 13.6137 19.0376 13.6181C19.0381 13.6238 19.0393 13.6368 19.0401 13.6442C19.0412 13.6543 19.0445 13.6792 19.0467 13.6938C19.0506 13.7171 19.0647 13.782 19.0761 13.8233C19.1091 13.9168 19.3582 14.2742 19.6425 14.4575C20.2309 14.5179 20.8714 14.0846 20.961 13.9134C20.9842 13.8503 21.0106 13.7541 21.0172 13.7221C21.0205 13.7032 21.0253 13.6718 21.0269 13.6593C21.028 13.6505 21.0296 13.6351 21.0302 13.6285C21.0307 13.6234 21.0314 13.6143 21.0317 13.6103C21.032 13.607 21.0324 13.601 21.0325 13.5982C21.0329 13.5919 21.0332 13.5867 21.0333 13.5833C21.0336 13.5765 21.0338 13.5712 21.0339 13.5684C21.0341 13.5627 21.0342 13.5582 21.0342 13.5565C21.0342 13.5542 21.0343 13.5523 21.0343 13.5511C21.0343 13.5487 21.0343 13.5468 21.0344 13.5456C21.0344 13.5443 21.0344 13.5431 21.0344 13.5422C21.0344 13.5386 21.0344 13.5347 21.0344 13.5314C21.0345 13.5279 21.0345 13.5241 21.0345 13.5206C21.0345 13.5188 21.0345 13.5168 21.0345 13.5149C21.0345 13.5131 21.0345 13.5106 21.0344 13.5078C21.0344 13.5065 21.0344 13.5043 21.0344 13.5017C21.0344 13.5004 21.0344 13.4986 21.0343 13.4964C21.0343 13.4944 21.0342 13.4908 21.0341 13.4863C21.0341 13.4839 21.034 13.4806 21.0338 13.4765C21.0337 13.4728 21.0335 13.466 21.033 13.4575C21.0328 13.4532 21.0324 13.4469 21.0319 13.4393C21.0316 13.436 21.0311 13.4289 21.0307 13.4251C21.0303 13.4205 21.0293 13.4102 21.0288 13.4046C21.028 13.3975 21.026 13.3813 21.0247 13.3722C21.023 13.36 21.0181 13.3308 21.0148 13.3138C21.0093 13.2884 20.9916 13.2215 20.9782 13.1803C20.9473 13.1027 20.795 12.8617 20.6489 12.722C20.2452 12.5335 19.4969 12.6678 19.2523 12.8879C19.1793 12.9926 19.0978 13.1607 19.0787 13.2169C19.0694 13.2488 19.0566 13.3016 19.0524 13.3223C19.0498 13.3366 19.0457 13.3615 19.0441 13.372C19.0431 13.38 19.0413 13.3943 19.0405 13.4007C19.04 13.4057 19.039 13.4151 19.0386 13.4193C19.0378 13.4289 19.0372 13.4369 19.0368 13.442C19.0364 13.4474 19.0362 13.452 19.036 13.4553C19.0358 13.4588 19.0356 13.4618 19.0355 13.4641C19.0353 13.4687 19.0352 13.4725 19.0351 13.475C19.0349 13.4799 19.0348 13.4839 19.0347 13.486C19.0347 13.4883 19.0346 13.4903 19.0346 13.4917C19.0345 13.4944 19.0345 13.4967 19.0345 13.4982C19.0344 13.5012 19.0344 13.5042 19.0344 13.5068L21.0343 13.5284ZM17.5794 18.356C19.043 17.4045 21.0069 16.0565 21.0343 13.5284L19.0344 13.5067C19.0199 14.8447 18.0532 15.6625 16.4893 16.6792L17.5794 18.356ZM14.0451 19.5175C15.3994 19.503 16.6145 18.9832 17.5794 18.356L16.4893 16.6792C15.7258 17.1755 14.8795 17.5084 14.0236 17.5176L14.0451 19.5175ZM14.0343 19.5176C14.0412 19.5176 14.045 19.5176 14.0468 19.5176C14.0479 19.5176 14.0472 19.5176 14.0456 19.5176C14.0451 19.5176 14.0424 19.5176 14.0388 19.5175C14.0372 19.5175 14.033 19.5174 14.0276 19.5173C14.0249 19.5172 14.0198 19.5171 14.0134 19.5168C14.0101 19.5167 14.0051 19.5164 13.9991 19.5161C13.9965 19.516 13.9909 19.5156 13.9878 19.5154C13.984 19.5152 13.9754 19.5145 13.9707 19.5141C13.9646 19.5136 13.9505 19.5122 13.9425 19.5114C13.9312 19.51 13.9033 19.5062 13.8867 19.5035C13.8593 19.4985 13.7804 19.4794 13.7294 19.4634C13.6016 19.4094 13.1614 18.9683 13.0544 18.4903C13.1779 18.0356 13.6097 17.6218 13.7312 17.5712C13.7808 17.5557 13.8576 17.5371 13.8842 17.5322C13.9006 17.5295 13.928 17.5256 13.939 17.5243C13.947 17.5234 13.961 17.522 13.967 17.5214C13.9717 17.521 13.9801 17.5204 13.9838 17.5201C13.9869 17.5199 13.9926 17.5195 13.9951 17.5194C14.0011 17.519 14.006 17.5188 14.0093 17.5186C14.0157 17.5183 14.0208 17.5182 14.0234 17.5181C14.0289 17.5179 14.0331 17.5178 14.0347 17.5178C14.0367 17.5178 14.0383 17.5178 14.0393 17.5177C14.0411 17.5177 14.0425 17.5177 14.0429 17.5177C14.0435 17.5177 14.0439 17.5177 14.0439 17.5177C14.044 17.5177 14.0438 17.5177 14.0431 17.5177C14.0424 17.5177 14.0416 17.5177 14.0406 17.5177C14.0386 17.5177 14.0365 17.5177 14.0348 17.5177C14.034 17.5177 14.0334 17.5177 14.0332 17.5177C14.0327 17.5177 14.0333 17.5177 14.0346 17.5177C14.0352 17.5177 14.0367 17.5177 14.0387 17.5178C14.0397 17.5178 14.0414 17.5178 14.0434 17.5178C14.0452 17.5178 14.0487 17.5179 14.0531 17.518C14.0554 17.5181 14.0588 17.5182 14.0629 17.5183C14.0666 17.5184 14.0736 17.5187 14.0824 17.5192C14.0869 17.5194 14.0936 17.5198 14.1016 17.5204C14.1051 17.5207 14.1126 17.5213 14.1168 17.5217C14.1217 17.5221 14.1329 17.5232 14.1391 17.5239C14.1469 17.5248 14.1649 17.5271 14.1751 17.5286C14.189 17.5308 14.2229 17.5369 14.2429 17.5411C14.2738 17.5484 14.3582 17.5738 14.4108 17.5939C14.5181 17.6462 14.8372 17.9306 14.9782 18.2068C15.017 18.6637 14.7054 19.2531 14.5312 19.3817C14.4536 19.4225 14.3303 19.4708 14.2874 19.4834C14.2616 19.49 14.2184 19.4993 14.201 19.5026C14.1887 19.5046 14.1672 19.5079 14.158 19.5092C14.1509 19.5101 14.1381 19.5116 14.1324 19.5122C14.1278 19.5127 14.1193 19.5135 14.1155 19.5138C14.1066 19.5146 14.0993 19.5151 14.0945 19.5154C14.0894 19.5158 14.0851 19.516 14.082 19.5162C14.0787 19.5164 14.0759 19.5165 14.0737 19.5166C14.0693 19.5168 14.0658 19.517 14.0634 19.517C14.0588 19.5172 14.0552 19.5173 14.0534 19.5173C14.0514 19.5174 14.0497 19.5174 14.0487 19.5174C14.0467 19.5175 14.0453 19.5175 14.0448 19.5175C14.0439 19.5175 14.0438 19.5175 14.045 19.5175L14.0236 17.5176C14.0211 17.5177 14.0181 17.5177 14.0151 17.5177C14.0136 17.5178 14.0113 17.5178 14.0087 17.5178C14.0073 17.5179 14.0054 17.5179 14.0031 17.518C14.0011 17.518 13.9973 17.5181 13.9925 17.5183C13.9901 17.5184 13.9865 17.5185 13.9821 17.5187C13.9798 17.5188 13.977 17.519 13.9737 17.5191C13.9705 17.5193 13.9662 17.5196 13.9611 17.5199C13.9563 17.5202 13.949 17.5207 13.9401 17.5215C13.9362 17.5219 13.9277 17.5227 13.9231 17.5232C13.9174 17.5238 13.9046 17.5253 13.8975 17.5262C13.8883 17.5275 13.8668 17.5307 13.8545 17.5328C13.8371 17.536 13.7939 17.5454 13.7681 17.552C13.7252 17.5646 13.6019 17.6129 13.5243 17.6537C13.3501 17.7823 13.0385 18.3716 13.0773 18.8286C13.2182 19.1048 13.5374 19.3892 13.6447 19.4414C13.6973 19.4615 13.7817 19.4869 13.8126 19.4943C13.8326 19.4984 13.8665 19.5046 13.8804 19.5068C13.8906 19.5082 13.9086 19.5106 13.9164 19.5115C13.9226 19.5121 13.9338 19.5133 13.9388 19.5137C13.9429 19.5141 13.9505 19.5147 13.9539 19.515C13.962 19.5156 13.9687 19.5159 13.9732 19.5162C13.982 19.5167 13.9891 19.5169 13.9928 19.5171C13.997 19.5172 14.0005 19.5173 14.0028 19.5174C14.0074 19.5175 14.0111 19.5176 14.0131 19.5176C14.0153 19.5176 14.0172 19.5176 14.0185 19.5177C14.021 19.5177 14.0232 19.5177 14.0245 19.5177C14.0273 19.5177 14.0298 19.5177 14.0316 19.5177C14.0335 19.5177 14.0354 19.5177 14.0372 19.5177C14.0408 19.5177 14.0446 19.5177 14.048 19.5177C14.0513 19.5177 14.0552 19.5177 14.0587 19.5176C14.0597 19.5176 14.0609 19.5176 14.0621 19.5176C14.0633 19.5176 14.0652 19.5176 14.0676 19.5175C14.0688 19.5175 14.0706 19.5175 14.0728 19.5175C14.0746 19.5174 14.0789 19.5173 14.0845 19.5172C14.0872 19.5171 14.0923 19.5169 14.0988 19.5166C14.102 19.5165 14.107 19.5162 14.1129 19.5159C14.1155 19.5157 14.1212 19.5154 14.1243 19.5152C14.128 19.5149 14.1365 19.5142 14.1412 19.5138C14.1471 19.5133 14.1611 19.5119 14.1691 19.511C14.1801 19.5096 14.2076 19.5058 14.2239 19.5031C14.2505 19.4981 14.3273 19.4796 14.3769 19.4641C14.4985 19.4135 14.9302 18.9996 15.0537 18.5449C14.9467 18.0669 14.5065 17.6258 14.3788 17.5718C14.3278 17.5558 14.2488 17.5368 14.2215 17.5317C14.2048 17.529 14.1769 17.5252 14.1657 17.5239C14.1576 17.523 14.1435 17.5216 14.1374 17.5211C14.1327 17.5207 14.1241 17.5201 14.1203 17.5198C14.1172 17.5196 14.1115 17.5193 14.1089 17.5191C14.1029 17.5188 14.098 17.5186 14.0947 17.5184C14.0882 17.5182 14.083 17.518 14.0803 17.518C14.0748 17.5178 14.0704 17.5177 14.0686 17.5177C14.0646 17.5177 14.0614 17.5176 14.0601 17.5176C14.057 17.5176 14.0541 17.5176 14.052 17.5176C14.0476 17.5176 14.0417 17.5176 14.0343 17.5176V19.5176ZM14.7495 19.2166C14.7716 19.1939 14.8016 19.1614 14.8335 19.12C14.8628 19.0819 14.9111 19.014 14.9538 18.9208C14.9921 18.8373 15.0625 18.6549 15.042 18.415C15.031 18.2869 14.994 18.1463 14.9173 18.0096C14.8405 17.8727 14.7389 17.7666 14.6323 17.6891C14.4321 17.5435 14.2332 17.5108 14.1364 17.5015C14.029 17.4913 13.9414 17.5003 13.8884 17.5083C13.7816 17.5244 13.6957 17.5545 13.6368 17.5795C13.5781 17.6043 13.4964 17.6452 13.4105 17.7109C13.3678 17.7435 13.3 17.8004 13.2325 17.8851C13.1716 17.9616 13.0563 18.1284 13.0225 18.3752C13.0044 18.5065 13.0109 18.6538 13.0568 18.8042C13.1025 18.9543 13.1785 19.078 13.2631 19.1742C13.4214 19.3541 13.6008 19.4294 13.6868 19.4595C13.7831 19.4932 13.8649 19.5055 13.9125 19.5109C13.9642 19.5167 14.0082 19.5177 14.0398 19.5176L14.0288 17.5176C14.0522 17.5175 14.0895 17.5182 14.1356 17.5234C14.1776 17.5281 14.2551 17.5394 14.3481 17.572C14.4308 17.601 14.6079 17.6748 14.7648 17.8532C14.8487 17.9486 14.9243 18.0716 14.9698 18.2208C15.0154 18.3703 15.0218 18.5167 15.0039 18.6472C14.9703 18.8921 14.856 19.0571 14.7966 19.1316C14.7306 19.2144 14.665 19.2693 14.6248 19.3C14.5438 19.3619 14.4688 19.3991 14.417 19.421C14.3651 19.443 14.2864 19.471 14.1859 19.4861C14.136 19.4936 14.0512 19.5025 13.9463 19.4925C13.852 19.4835 13.6552 19.4513 13.4564 19.3069C13.3505 19.2299 13.2495 19.1244 13.1731 18.9883C13.0969 18.8524 13.0602 18.7127 13.0493 18.5856C13.0289 18.3477 13.0988 18.1679 13.1356 18.0876C13.1769 17.9976 13.2228 17.9335 13.2487 17.8998C13.2772 17.8629 13.3027 17.8354 13.3192 17.8186L14.7495 19.2166ZM15.0343 19.5176V18.5176H13.0343V19.5176H15.0343ZM12.6528 21.3034C12.6525 21.3036 12.6862 21.2783 12.8097 21.2319C12.9525 21.1782 13.0626 21.1481 13.2952 21.0696C13.6922 20.9358 14.2657 20.717 14.7533 20.2126L13.3153 18.8226C13.174 18.9688 12.9838 19.064 12.6562 19.1745C12.5265 19.2182 12.2841 19.2928 12.1058 19.3598C11.9084 19.4341 11.6525 19.5455 11.4158 19.7318L12.6528 21.3034ZM11.0343 22.5176C11.3636 22.5176 11.6971 22.4358 11.9886 22.2196C12.2561 22.0212 12.3991 21.772 12.4722 21.6347C12.6551 21.2911 12.6183 21.3305 12.6528 21.3034L11.4158 19.7318C11.1683 19.9266 11.0087 20.1438 10.8991 20.3282C10.8464 20.4169 10.8043 20.4997 10.7739 20.5608C10.738 20.6329 10.725 20.6606 10.7069 20.6946C10.673 20.7583 10.6998 20.6855 10.7971 20.6133C10.8498 20.5742 10.9065 20.5471 10.9587 20.5317C11.0077 20.5172 11.037 20.5176 11.0343 20.5176V22.5176ZM8.41582 21.3034C8.68126 21.5123 9.06625 21.7983 9.48859 22.0361C9.88016 22.2565 10.4436 22.5176 11.0343 22.5176V20.5176C10.9795 20.5176 10.7921 20.4748 10.4697 20.2932C10.1779 20.129 9.88568 19.9151 9.65283 19.7318L8.41582 21.3034ZM6.31532 20.2126C6.80295 20.717 7.37641 20.9358 7.77344 21.0697C8.00607 21.1481 8.1161 21.1782 8.25892 21.2319C8.38247 21.2783 8.41619 21.3036 8.41582 21.3034L9.65283 19.7318C9.41611 19.5455 9.16028 19.4341 8.9628 19.3598C8.78459 19.2928 8.5421 19.2182 8.41244 19.1745C8.0849 19.064 7.8947 18.9688 7.75332 18.8226L6.31532 20.2126ZM6.03432 18.5176V19.5176H8.03432V18.5176H6.03432ZM7.02882 19.5176C7.06041 19.5177 7.10445 19.5167 7.15615 19.5109C7.2037 19.5055 7.28559 19.4932 7.3818 19.4595C7.46785 19.4294 7.6472 19.3541 7.8055 19.1742C7.89008 19.0781 7.96609 18.9543 8.01186 18.8043C8.05774 18.6538 8.0642 18.5065 8.04617 18.3752C8.01231 18.1285 7.89705 17.9616 7.83614 17.8852C7.76861 17.8004 7.70087 17.7435 7.65817 17.7109C7.5722 17.6452 7.49057 17.6043 7.4318 17.5795C7.37298 17.5545 7.287 17.5244 7.18028 17.5083C7.12723 17.5003 7.03963 17.4913 6.93226 17.5015C6.83545 17.5108 6.6366 17.5435 6.43636 17.6891C6.32976 17.7665 6.22815 17.8727 6.15133 18.0096C6.07464 18.1463 6.03763 18.2868 6.02666 18.415C6.00611 18.6549 6.07656 18.8373 6.11483 18.9208C6.15755 19.014 6.20585 19.0819 6.23517 19.1199C6.26705 19.1614 6.29704 19.1939 6.31919 19.2166L7.74946 17.8186C7.76591 17.8354 7.79143 17.8629 7.81991 17.8999C7.84581 17.9335 7.89176 17.9976 7.93303 18.0876C7.96984 18.168 8.03973 18.3478 8.01936 18.5856C8.00848 18.7127 7.97174 18.8524 7.89548 18.9883C7.81909 19.1245 7.71809 19.2299 7.61223 19.3069C7.41347 19.4513 7.21668 19.4835 7.12233 19.4925C7.01742 19.5025 6.93269 19.4936 6.88278 19.4861C6.78229 19.471 6.70355 19.443 6.65166 19.421C6.59982 19.3991 6.5248 19.3619 6.44384 19.3C6.40364 19.2693 6.33801 19.2144 6.27201 19.1315C6.21264 19.057 6.09836 18.8921 6.06475 18.6471C6.04685 18.5167 6.05325 18.3703 6.09887 18.2207C6.14438 18.0715 6.21993 17.9486 6.30383 17.8532C6.46075 17.6748 6.63786 17.601 6.72059 17.572C6.8135 17.5394 6.89103 17.5281 6.93301 17.5234C6.97914 17.5182 7.0164 17.5175 7.03982 17.5176L7.02882 19.5176ZM7.03432 19.5176C7.03434 19.5176 7.03436 19.5176 7.03438 19.5176C7.03439 19.5176 7.03441 19.5176 7.03443 19.5176C7.03445 19.5176 7.03446 19.5176 7.03448 19.5176C7.0345 19.5176 7.03452 19.5176 7.03453 19.5176C7.03455 19.5176 7.03457 19.5176 7.03458 19.5176C7.0346 19.5176 7.03462 19.5176 7.03464 19.5176C7.03465 19.5176 7.03467 19.5176 7.03468 19.5176C7.0347 19.5176 7.03472 19.5176 7.03473 19.5176C7.03475 19.5176 7.03477 19.5176 7.03478 19.5176C7.0348 19.5176 7.03481 19.5176 7.03483 19.5176C7.03485 19.5176 7.03486 19.5176 7.03488 19.5176C7.03489 19.5176 7.03491 19.5176 7.03492 19.5176C7.03494 19.5176 7.03495 19.5176 7.03497 19.5176C7.03499 19.5176 7.035 19.5176 7.03502 19.5176C7.03503 19.5176 7.03504 19.5176 7.03506 19.5176C7.03507 19.5176 7.03509 19.5176 7.0351 19.5176C7.03512 19.5176 7.03513 19.5176 7.03515 19.5176C7.03516 19.5176 7.03518 19.5176 7.03519 19.5176C7.0352 19.5176 7.03522 19.5176 7.03523 19.5176C7.03525 19.5176 7.03526 19.5176 7.03527 19.5176C7.03529 19.5176 7.0353 19.5176 7.03531 19.5176C7.03533 19.5176 7.03534 19.5176 7.03535 19.5176C7.03537 19.5176 7.03538 19.5176 7.03539 19.5176C7.03541 19.5176 7.03542 19.5176 7.03543 19.5176C7.03545 19.5176 7.03546 19.5176 7.03547 19.5176C7.03548 19.5176 7.0355 19.5176 7.03551 19.5176C7.03552 19.5176 7.03553 19.5176 7.03555 19.5176C7.03556 19.5176 7.03557 19.5176 7.03558 19.5176C7.0356 19.5176 7.03561 19.5176 7.03562 19.5176C7.03563 19.5176 7.03564 19.5176 7.03566 19.5176C7.03567 19.5176 7.03568 19.5176 7.03569 19.5176C7.0357 19.5176 7.03571 19.5176 7.03573 19.5176C7.03574 19.5176 7.03575 19.5176 7.03576 19.5176C7.03577 19.5176 7.03578 19.5176 7.03579 19.5176C7.0358 19.5176 7.03581 19.5176 7.03582 19.5176C7.03584 19.5176 7.03585 19.5176 7.03586 19.5176C7.03587 19.5176 7.03588 19.5176 7.03589 19.5176C7.0359 19.5176 7.03591 19.5176 7.03592 19.5176C7.03593 19.5176 7.03594 19.5176 7.03595 19.5176C7.03596 19.5176 7.03597 19.5176 7.03598 19.5176C7.03599 19.5176 7.036 19.5176 7.03601 19.5176C7.03602 19.5176 7.03603 19.5176 7.03604 19.5176C7.03605 19.5176 7.03606 19.5176 7.03607 19.5176C7.03607 19.5176 7.03608 19.5176 7.03609 19.5176C7.0361 19.5176 7.03611 19.5176 7.03612 19.5176C7.03613 19.5176 7.03614 19.5176 7.03615 19.5176C7.03615 19.5176 7.03616 19.5176 7.03617 19.5176C7.03618 19.5176 7.03619 19.5176 7.0362 19.5176C7.03621 19.5176 7.03621 19.5176 7.03622 19.5176C7.03623 19.5176 7.03624 19.5176 7.03625 19.5176C7.03625 19.5176 7.03626 19.5176 7.03627 19.5176C7.03628 19.5176 7.03629 19.5176 7.03629 19.5176C7.0363 19.5176 7.03631 19.5176 7.03632 19.5176C7.03632 19.5176 7.03633 19.5176 7.03634 19.5176C7.03635 19.5176 7.03635 19.5176 7.03636 19.5176C7.03637 19.5176 7.03637 19.5176 7.03638 19.5176C7.03639 19.5176 7.0364 19.5176 7.0364 19.5176C7.03641 19.5176 7.03642 19.5176 7.03642 19.5176C7.03643 19.5176 7.03644 19.5176 7.03644 19.5176C7.03645 19.5176 7.03645 19.5176 7.03646 19.5176C7.03647 19.5176 7.03647 19.5176 7.03648 19.5176C7.03649 19.5176 7.03649 19.5176 7.0365 19.5176C7.0365 19.5176 7.03651 19.5176 7.03652 19.5176C7.03652 19.5176 7.03653 19.5176 7.03653 19.5176C7.03654 19.5176 7.03654 19.5176 7.03655 19.5176C7.03655 19.5176 7.03656 19.5176 7.03657 19.5176C7.03657 19.5176 7.03658 19.5176 7.03658 19.5176C7.03659 19.5176 7.03659 19.5176 7.0366 19.5176C7.0366 19.5176 7.03661 19.5176 7.03661 19.5176C7.03662 19.5176 7.03662 19.5176 7.03662 19.5176C7.03663 19.5176 7.03663 19.5176 7.03664 19.5176C7.03664 19.5176 7.03665 19.5176 7.03665 19.5176C7.03666 19.5176 7.03666 19.5176 7.03666 19.5176C7.03667 19.5176 7.03667 19.5176 7.03668 19.5176C7.03668 19.5176 7.03668 19.5176 7.03669 19.5176C7.03669 19.5176 7.0367 19.5176 7.0367 19.5176C7.0367 19.5176 7.03671 19.5176 7.03671 19.5176C7.03671 19.5176 7.03672 19.5176 7.03672 19.5176C7.03672 19.5176 7.03673 19.5176 7.03673 19.5176C7.03673 19.5176 7.03674 19.5176 7.03674 19.5176C7.03674 19.5176 7.03675 19.5176 7.03675 19.5176C7.03675 19.5176 7.03676 19.5176 7.03676 19.5176C7.03676 19.5176 7.03676 19.5176 7.03677 19.5176C7.03677 19.5176 7.03677 19.5176 7.03677 19.5176C7.03678 19.5176 7.03678 19.5176 7.03678 19.5176C7.03678 19.5176 7.03679 19.5176 7.03679 19.5176C7.03679 19.5176 7.03679 19.5176 7.03679 19.5176C7.0368 19.5176 7.0368 19.5176 7.0368 19.5176C7.0368 19.5176 7.0368 19.5176 7.03681 19.5176C7.03681 19.5176 7.03681 19.5176 7.03681 19.5176C7.03681 19.5176 7.03681 19.5176 7.03682 19.5176C7.03682 19.5176 7.03682 19.5176 7.03682 19.5176C7.03682 19.5176 7.03682 19.5176 7.03682 19.5176C7.03682 19.5176 7.03683 19.5176 7.03683 19.5176C7.03683 19.5176 7.03683 19.5176 7.03683 19.5176C7.03683 19.5176 7.03683 19.5176 7.03683 19.5176C7.03683 19.5176 7.03683 19.5176 7.03683 19.5176C7.03684 19.5176 7.03684 19.5176 7.03684 19.5176C7.03684 19.5176 7.03684 19.5176 7.03684 19.5176C7.03684 19.5176 7.03684 19.5176 7.03684 19.5176C7.03684 19.5176 7.03684 19.5176 7.03684 19.5176C7.03684 19.5176 7.03684 18.5176 7.03684 17.5176C7.03684 17.5176 7.03684 17.5176 7.03684 17.5176C7.03684 17.5176 7.03684 17.5176 7.03684 17.5176C7.03684 17.5176 7.03684 17.5176 7.03684 17.5176C7.03684 17.5176 7.03684 17.5176 7.03684 17.5176C7.03684 17.5176 7.03684 17.5176 7.03683 17.5176C7.03683 17.5176 7.03683 17.5176 7.03683 17.5176C7.03683 17.5176 7.03683 17.5176 7.03683 17.5176C7.03683 17.5176 7.03683 17.5176 7.03683 17.5176C7.03683 17.5176 7.03682 17.5176 7.03682 17.5176C7.03682 17.5176 7.03682 17.5176 7.03682 17.5176C7.03682 17.5176 7.03682 17.5176 7.03682 17.5176C7.03681 17.5176 7.03681 17.5176 7.03681 17.5176C7.03681 17.5176 7.03681 17.5176 7.03681 17.5176C7.0368 17.5176 7.0368 17.5176 7.0368 17.5176C7.0368 17.5176 7.0368 17.5176 7.0368 17.5176C7.03679 17.5176 7.03679 17.5176 7.03679 17.5176C7.03679 17.5176 7.03679 17.5176 7.03678 17.5176C7.03678 17.5176 7.03678 17.5176 7.03678 17.5176C7.03678 17.5176 7.03677 17.5176 7.03677 17.5176C7.03677 17.5176 7.03677 17.5176 7.03676 17.5176C7.03676 17.5176 7.03676 17.5176 7.03676 17.5176C7.03675 17.5176 7.03675 17.5176 7.03675 17.5176C7.03675 17.5176 7.03674 17.5176 7.03674 17.5176C7.03674 17.5176 7.03673 17.5176 7.03673 17.5176C7.03673 17.5176 7.03673 17.5176 7.03672 17.5176C7.03672 17.5176 7.03672 17.5176 7.03671 17.5176C7.03671 17.5176 7.03671 17.5176 7.0367 17.5176C7.0367 17.5176 7.0367 17.5176 7.03669 17.5176C7.03669 17.5176 7.03669 17.5176 7.03668 17.5176C7.03668 17.5176 7.03668 17.5176 7.03667 17.5176C7.03667 17.5176 7.03667 17.5176 7.03666 17.5176C7.03666 17.5176 7.03665 17.5176 7.03665 17.5176C7.03665 17.5176 7.03664 17.5176 7.03664 17.5176C7.03664 17.5176 7.03663 17.5176 7.03663 17.5176C7.03662 17.5176 7.03662 17.5176 7.03662 17.5176C7.03661 17.5176 7.03661 17.5176 7.0366 17.5176C7.0366 17.5176 7.03659 17.5176 7.03659 17.5176C7.03659 17.5176 7.03658 17.5176 7.03658 17.5176C7.03657 17.5176 7.03657 17.5176 7.03656 17.5176C7.03656 17.5176 7.03656 17.5176 7.03655 17.5176C7.03655 17.5176 7.03654 17.5176 7.03654 17.5176C7.03653 17.5176 7.03653 17.5176 7.03652 17.5176C7.03652 17.5176 7.03651 17.5176 7.03651 17.5176C7.0365 17.5176 7.0365 17.5176 7.03649 17.5176C7.03649 17.5176 7.03648 17.5176 7.03648 17.5176C7.03647 17.5176 7.03647 17.5176 7.03646 17.5176C7.03646 17.5176 7.03645 17.5176 7.03645 17.5176C7.03644 17.5176 7.03644 17.5176 7.03643 17.5176C7.03643 17.5176 7.03642 17.5176 7.03642 17.5176C7.03641 17.5176 7.03641 17.5176 7.0364 17.5176C7.03639 17.5176 7.03639 17.5176 7.03638 17.5176C7.03638 17.5176 7.03637 17.5176 7.03637 17.5176C7.03636 17.5176 7.03636 17.5176 7.03635 17.5176C7.03634 17.5176 7.03634 17.5176 7.03633 17.5176C7.03633 17.5176 7.03632 17.5176 7.03631 17.5176C7.03631 17.5176 7.0363 17.5176 7.0363 17.5176C7.03629 17.5176 7.03628 17.5176 7.03628 17.5176C7.03627 17.5176 7.03627 17.5176 7.03626 17.5176C7.03625 17.5176 7.03625 17.5176 7.03624 17.5176C7.03624 17.5176 7.03623 17.5176 7.03622 17.5176C7.03622 17.5176 7.03621 17.5176 7.0362 17.5176C7.0362 17.5176 7.03619 17.5176 7.03618 17.5176C7.03618 17.5176 7.03617 17.5176 7.03617 17.5176C7.03616 17.5176 7.03615 17.5176 7.03615 17.5176C7.03614 17.5176 7.03613 17.5176 7.03613 17.5176C7.03612 17.5176 7.03611 17.5176 7.03611 17.5176C7.0361 17.5176 7.03609 17.5176 7.03609 17.5176C7.03608 17.5176 7.03607 17.5176 7.03606 17.5176C7.03606 17.5176 7.03605 17.5176 7.03604 17.5176C7.03604 17.5176 7.03603 17.5176 7.03602 17.5176C7.03602 17.5176 7.03601 17.5176 7.036 17.5176C7.03599 17.5176 7.03599 17.5176 7.03598 17.5176C7.03597 17.5176 7.03597 17.5176 7.03596 17.5176C7.03595 17.5176 7.03594 17.5176 7.03594 17.5176C7.03593 17.5176 7.03592 17.5176 7.03591 17.5176C7.03591 17.5176 7.0359 17.5176 7.03589 17.5176C7.03589 17.5176 7.03588 17.5176 7.03587 17.5176C7.03586 17.5176 7.03586 17.5176 7.03585 17.5176C7.03584 17.5176 7.03583 17.5176 7.03582 17.5176C7.03582 17.5176 7.03581 17.5176 7.0358 17.5176C7.03579 17.5176 7.03579 17.5176 7.03578 17.5176C7.03577 17.5176 7.03576 17.5176 7.03576 17.5176C7.03575 17.5176 7.03574 17.5176 7.03573 17.5176C7.03572 17.5176 7.03572 17.5176 7.03571 17.5176C7.0357 17.5176 7.03569 17.5176 7.03568 17.5176C7.03568 17.5176 7.03567 17.5176 7.03566 17.5176C7.03565 17.5176 7.03564 17.5176 7.03564 17.5176C7.03563 17.5176 7.03562 17.5176 7.03561 17.5176C7.0356 17.5176 7.0356 17.5176 7.03559 17.5176C7.03558 17.5176 7.03557 17.5176 7.03556 17.5176C7.03555 17.5176 7.03555 17.5176 7.03554 17.5176C7.03553 17.5176 7.03552 17.5176 7.03551 17.5176C7.0355 17.5176 7.0355 17.5176 7.03549 17.5176C7.03548 17.5176 7.03547 17.5176 7.03546 17.5176C7.03545 17.5176 7.03545 17.5176 7.03544 17.5176C7.03543 17.5176 7.03542 17.5176 7.03541 17.5176C7.0354 17.5176 7.03539 17.5176 7.03539 17.5176C7.03538 17.5176 7.03537 17.5176 7.03536 17.5176C7.03535 17.5176 7.03534 17.5176 7.03533 17.5176C7.03533 17.5176 7.03532 17.5176 7.03531 17.5176C7.0353 17.5176 7.03529 17.5176 7.03528 17.5176C7.03527 17.5176 7.03526 17.5176 7.03526 17.5176C7.03525 17.5176 7.03524 17.5176 7.03523 17.5176C7.03522 17.5176 7.03521 17.5176 7.0352 17.5176C7.03519 17.5176 7.03519 17.5176 7.03518 17.5176C7.03517 17.5176 7.03516 17.5176 7.03515 17.5176C7.03514 17.5176 7.03513 17.5176 7.03512 17.5176C7.03511 17.5176 7.0351 17.5176 7.0351 17.5176C7.03509 17.5176 7.03508 17.5176 7.03507 17.5176C7.03506 17.5176 7.03505 17.5176 7.03504 17.5176C7.03503 17.5176 7.03502 17.5176 7.03501 17.5176C7.035 17.5176 7.035 17.5176 7.03499 17.5176C7.03498 17.5176 7.03497 17.5176 7.03496 17.5176C7.03495 17.5176 7.03494 17.5176 7.03493 17.5176C7.03492 17.5176 7.03491 17.5176 7.0349 17.5176C7.03489 17.5176 7.03489 17.5176 7.03488 17.5176C7.03487 17.5176 7.03486 17.5176 7.03485 17.5176C7.03484 17.5176 7.03483 17.5176 7.03482 17.5176C7.03481 17.5176 7.0348 17.5176 7.03479 17.5176C7.03478 17.5176 7.03477 17.5176 7.03476 17.5176C7.03475 17.5176 7.03475 17.5176 7.03474 17.5176C7.03473 17.5176 7.03472 17.5176 7.03471 17.5176C7.0347 17.5176 7.03469 17.5176 7.03468 17.5176C7.03467 17.5176 7.03466 17.5176 7.03465 17.5176C7.03464 17.5176 7.03463 17.5176 7.03462 17.5176C7.03461 17.5176 7.0346 17.5176 7.03459 17.5176C7.03458 17.5176 7.03457 17.5176 7.03457 17.5176C7.03456 17.5176 7.03455 17.5176 7.03454 17.5176C7.03453 17.5176 7.03452 17.5176 7.03451 17.5176C7.0345 17.5176 7.03449 17.5176 7.03448 17.5176C7.03447 17.5176 7.03446 17.5176 7.03445 17.5176C7.03444 17.5176 7.03443 17.5176 7.03442 17.5176C7.03441 17.5176 7.0344 17.5176 7.03439 17.5176C7.03438 17.5176 7.03437 17.5176 7.03436 17.5176C7.03435 17.5176 7.03434 17.5176 7.03434 17.5176C7.03433 17.5176 7.03432 17.5176 7.03431 17.5176C7.0343 17.5176 7.03429 17.5176 7.03428 17.5176C7.03427 17.5176 7.03426 17.5176 7.03425 17.5176C7.03424 17.5176 7.03423 17.5176 7.03422 17.5176C7.03421 17.5176 7.0342 17.5176 7.03419 17.5176C7.03418 17.5176 7.03417 17.5176 7.03416 17.5176C7.03415 17.5176 7.03414 17.5176 7.03413 17.5176C7.03412 17.5176 7.03411 17.5176 7.0341 17.5176C7.03409 17.5176 7.03408 17.5176 7.03407 17.5176C7.03406 17.5176 7.03405 17.5176 7.03404 17.5176C7.03403 17.5176 7.03402 17.5176 7.03402 17.5176C7.03401 17.5176 7.034 17.5176 7.03399 17.5176C7.03398 17.5176 7.03397 17.5176 7.03396 17.5176C7.03395 17.5176 7.03394 17.5176 7.03393 17.5176C7.03392 17.5176 7.03391 17.5176 7.0339 17.5176C7.03389 17.5176 7.03388 17.5176 7.03387 17.5176C7.03386 17.5176 7.03385 17.5176 7.03384 17.5176C7.03383 17.5176 7.03382 17.5176 7.03381 17.5176C7.0338 17.5176 7.03379 17.5176 7.03378 17.5176C7.03377 17.5176 7.03376 17.5176 7.03375 17.5176C7.03374 17.5176 7.03373 17.5176 7.03372 17.5176C7.03371 17.5176 7.0337 17.5176 7.03369 17.5176C7.03368 17.5176 7.03368 17.5176 7.03367 17.5176C7.03366 17.5176 7.03365 17.5176 7.03364 17.5176C7.03363 17.5176 7.03362 17.5176 7.03361 17.5176C7.0336 17.5176 7.03359 17.5176 7.03358 17.5176C7.03357 17.5176 7.03356 17.5176 7.03355 17.5176C7.03354 17.5176 7.03353 17.5176 7.03352 17.5176C7.03351 17.5176 7.0335 17.5176 7.03349 17.5176C7.03348 17.5176 7.03347 17.5176 7.03346 17.5176C7.03345 17.5176 7.03344 17.5176 7.03343 17.5176C7.03342 17.5176 7.03342 17.5176 7.03341 17.5176C7.0334 17.5176 7.03339 17.5176 7.03338 17.5176C7.03337 17.5176 7.03336 17.5176 7.03335 17.5176C7.03334 17.5176 7.03333 17.5176 7.03332 17.5176C7.03331 17.5176 7.0333 17.5176 7.03329 17.5176C7.03328 17.5176 7.03327 17.5176 7.03326 17.5176C7.03325 17.5176 7.03324 17.5176 7.03323 17.5176C7.03323 17.5176 7.03322 17.5176 7.03321 17.5176C7.0332 17.5176 7.03319 17.5176 7.03318 17.5176C7.03317 17.5176 7.03316 17.5176 7.03315 17.5176C7.03314 17.5176 7.03313 17.5176 7.03312 17.5176C7.03311 17.5176 7.0331 17.5176 7.03309 17.5176C7.03308 17.5176 7.03307 17.5176 7.03307 17.5176C7.03306 17.5176 7.03305 17.5176 7.03304 17.5176C7.03303 17.5176 7.03302 17.5176 7.03301 17.5176C7.033 17.5176 7.03299 17.5176 7.03298 17.5176C7.03297 17.5176 7.03296 17.5176 7.03296 17.5176C7.03295 17.5176 7.03294 17.5176 7.03293 17.5176C7.03292 17.5176 7.03291 17.5176 7.0329 17.5176C7.03289 17.5176 7.03288 17.5176 7.03287 17.5176C7.03286 17.5176 7.03285 17.5176 7.03285 17.5176C7.03284 17.5176 7.03283 17.5176 7.03282 17.5176C7.03281 17.5176 7.0328 17.5176 7.03279 17.5176C7.03278 17.5176 7.03277 17.5176 7.03276 17.5176C7.03276 17.5176 7.03275 17.5176 7.03274 17.5176C7.03273 17.5176 7.03272 17.5176 7.03271 17.5176C7.0327 17.5176 7.03269 17.5176 7.03268 17.5176C7.03268 17.5176 7.03267 17.5176 7.03266 17.5176C7.03265 17.5176 7.03264 17.5176 7.03263 17.5176C7.03262 17.5176 7.03261 17.5176 7.03261 17.5176C7.0326 17.5176 7.03259 17.5176 7.03258 17.5176C7.03257 17.5176 7.03256 17.5176 7.03255 17.5176C7.03255 17.5176 7.03254 17.5176 7.03253 17.5176C7.03252 17.5176 7.03251 17.5176 7.0325 17.5176C7.03249 17.5176 7.03249 17.5176 7.03248 17.5176C7.03247 17.5176 7.03246 17.5176 7.03245 17.5176C7.03244 17.5176 7.03244 17.5176 7.03243 17.5176C7.03242 17.5176 7.03241 17.5176 7.0324 17.5176C7.03239 17.5176 7.03239 17.5176 7.03238 17.5176C7.03237 17.5176 7.03236 17.5176 7.03235 17.5176C7.03234 17.5176 7.03234 17.5176 7.03233 17.5176C7.03232 17.5176 7.03231 17.5176 7.0323 17.5176C7.0323 17.5176 7.03229 17.5176 7.03228 17.5176C7.03227 17.5176 7.03226 17.5176 7.03225 17.5176C7.03225 17.5176 7.03224 17.5176 7.03223 17.5176C7.03222 17.5176 7.03222 17.5176 7.03221 17.5176C7.0322 17.5176 7.03219 17.5176 7.03218 17.5176C7.03218 17.5176 7.03217 17.5176 7.03216 17.5176C7.03215 17.5176 7.03214 17.5176 7.03214 17.5176C7.03213 17.5176 7.03212 17.5176 7.03211 17.5176C7.03211 17.5176 7.0321 17.5176 7.03209 17.5176C7.03208 17.5176 7.03208 17.5176 7.03207 17.5176C7.03206 17.5176 7.03205 17.5176 7.03205 17.5176C7.03204 17.5176 7.03203 17.5176 7.03202 17.5176C7.03202 17.5176 7.03201 17.5176 7.032 17.5176C7.03199 17.5176 7.03199 17.5176 7.03198 17.5176C7.03197 17.5176 7.03196 17.5176 7.03196 17.5176C7.03195 17.5176 7.03194 17.5176 7.03194 17.5176C7.03193 17.5176 7.03192 17.5176 7.03191 17.5176C7.03191 17.5176 7.0319 17.5176 7.03189 17.5176C7.03189 17.5176 7.03188 17.5176 7.03187 17.5176C7.03187 17.5176 7.03186 17.5176 7.03185 17.5176C7.03185 17.5176 7.03184 17.5176 7.03183 17.5176C7.03182 17.5176 7.03182 17.5176 7.03181 17.5176C7.0318 17.5176 7.0318 17.5176 7.03179 17.5176C7.03178 17.5176 7.03178 17.5176 7.03177 17.5176C7.03176 17.5176 7.03176 17.5176 7.03175 17.5176C7.03174 17.5176 7.03174 17.5176 7.03173 17.5176C7.03173 17.5176 7.03172 17.5176 7.03171 17.5176C7.03171 17.5176 7.0317 17.5176 7.03169 17.5176C7.03169 17.5176 7.03168 17.5176 7.03168 17.5176C7.03167 17.5176 7.03166 17.5176 7.03166 17.5176C7.03165 17.5176 7.03164 17.5176 7.03164 17.5176C7.03163 17.5176 7.03163 17.5176 7.03162 17.5176C7.03161 17.5176 7.03161 17.5176 7.0316 17.5176C7.0316 17.5176 7.03159 17.5176 7.03159 17.5176C7.03158 17.5176 7.03157 17.5176 7.03157 17.5176C7.03156 17.5176 7.03156 17.5176 7.03155 17.5176C7.03155 17.5176 7.03154 17.5176 7.03153 17.5176C7.03153 17.5176 7.03152 17.5176 7.03152 17.5176C7.03151 17.5176 7.03151 17.5176 7.0315 17.5176C7.0315 17.5176 7.03149 17.5176 7.03149 17.5176C7.03148 17.5176 7.03148 17.5176 7.03147 17.5176C7.03147 17.5176 7.03146 17.5176 7.03146 17.5176C7.03145 17.5176 7.03145 17.5176 7.03144 17.5176C7.03144 17.5176 7.03143 17.5176 7.03143 17.5176C7.03142 17.5176 7.03142 17.5176 7.03141 17.5176C7.03141 17.5176 7.0314 17.5176 7.0314 17.5176C7.03139 17.5176 7.03139 17.5176 7.03138 17.5176C7.03138 17.5176 7.03137 17.5176 7.03137 17.5176C7.03136 17.5176 7.03136 17.5176 7.03136 17.5176C7.03135 17.5176 7.03135 17.5176 7.03134 17.5176C7.03134 17.5176 7.03133 17.5176 7.03133 17.5176C7.03132 17.5176 7.03132 17.5176 7.03132 17.5176C7.03131 17.5176 7.03131 17.5176 7.0313 17.5176C7.0313 17.5176 7.0313 17.5176 7.03129 17.5176C7.03129 17.5176 7.03128 17.5176 7.03128 17.5176C7.03128 17.5176 7.03127 17.5176 7.03127 17.5176C7.03127 17.5176 7.03126 17.5176 7.03126 17.5176C7.03125 17.5176 7.03125 17.5176 7.03125 17.5176C7.03124 17.5176 7.03124 17.5176 7.03124 17.5176C7.03123 17.5176 7.03123 17.5176 7.03123 17.5176C7.03122 17.5176 7.03122 17.5176 7.03122 17.5176C7.03121 17.5176 7.03121 17.5176 7.03121 17.5176C7.03121 17.5176 7.0312 17.5176 7.0312 17.5176C7.0312 17.5176 7.03119 17.5176 7.03119 17.5176C7.03119 17.5176 7.03118 17.5176 7.03118 17.5176C7.03118 17.5176 7.03118 17.5176 7.03117 17.5176C7.03117 17.5176 7.03117 17.5176 7.03117 17.5176C7.03116 17.5176 7.03116 17.5176 7.03116 17.5176C7.03116 17.5176 7.03115 17.5176 7.03115 17.5176C7.03115 17.5176 7.03115 17.5176 7.03114 17.5176C7.03114 17.5176 7.03114 17.5176 7.03114 17.5176C7.03114 17.5176 7.03113 17.5176 7.03113 17.5176C7.03113 17.5176 7.03113 17.5176 7.03113 17.5176C7.03112 17.5176 7.03112 17.5176 7.03112 17.5176C7.03112 17.5176 7.03112 17.5176 7.03112 17.5176C7.03111 17.5176 7.03111 17.5176 7.03111 17.5176C7.03111 17.5176 7.03111 17.5176 7.03111 17.5176C7.03111 17.5176 7.0311 17.5176 7.0311 17.5176C7.0311 17.5176 7.0311 17.5176 7.0311 17.5176C7.0311 17.5176 7.0311 17.5176 7.0311 17.5176C7.0311 17.5176 7.0311 17.5176 7.03109 17.5176C7.03109 17.5176 7.03109 17.5176 7.03109 17.5176C7.03109 17.5176 7.03109 17.5176 7.03109 17.5176C7.03109 17.5176 7.03109 17.5176 7.03109 17.5176C7.03109 17.5176 7.03109 17.5176 7.03109 17.5176H7.03109C7.03109 17.5176 7.03109 17.5176 7.03109 17.5176C7.03109 17.5176 7.03109 18.5176 7.03109 19.5176H7.03109H7.03109C7.03109 19.5176 7.03109 19.5176 7.03109 19.5176C7.03109 19.5176 7.03109 19.5176 7.03109 19.5176C7.03109 19.5176 7.03109 19.5176 7.03109 19.5176C7.03109 19.5176 7.03109 19.5176 7.03109 19.5176C7.03109 19.5176 7.03109 19.5176 7.0311 19.5176C7.0311 19.5176 7.0311 19.5176 7.0311 19.5176C7.0311 19.5176 7.0311 19.5176 7.0311 19.5176C7.0311 19.5176 7.03111 19.5176 7.03111 19.5176C7.03111 19.5176 7.03111 19.5176 7.03111 19.5176C7.03111 19.5176 7.03111 19.5176 7.03112 19.5176C7.03112 19.5176 7.03112 19.5176 7.03112 19.5176C7.03112 19.5176 7.03112 19.5176 7.03113 19.5176C7.03113 19.5176 7.03113 19.5176 7.03113 19.5176C7.03113 19.5176 7.03114 19.5176 7.03114 19.5176C7.03114 19.5176 7.03114 19.5176 7.03115 19.5176C7.03115 19.5176 7.03115 19.5176 7.03115 19.5176C7.03116 19.5176 7.03116 19.5176 7.03116 19.5176C7.03116 19.5176 7.03117 19.5176 7.03117 19.5176C7.03117 19.5176 7.03118 19.5176 7.03118 19.5176C7.03118 19.5176 7.03118 19.5176 7.03119 19.5176C7.03119 19.5176 7.03119 19.5176 7.0312 19.5176C7.0312 19.5176 7.0312 19.5176 7.03121 19.5176C7.03121 19.5176 7.03121 19.5176 7.03122 19.5176C7.03122 19.5176 7.03123 19.5176 7.03123 19.5176C7.03123 19.5176 7.03124 19.5176 7.03124 19.5176C7.03124 19.5176 7.03125 19.5176 7.03125 19.5176C7.03126 19.5176 7.03126 19.5176 7.03127 19.5176C7.03127 19.5176 7.03127 19.5176 7.03128 19.5176C7.03128 19.5176 7.03129 19.5176 7.03129 19.5176C7.0313 19.5176 7.0313 19.5176 7.03131 19.5176C7.03131 19.5176 7.03131 19.5176 7.03132 19.5176C7.03132 19.5176 7.03133 19.5176 7.03133 19.5176C7.03134 19.5176 7.03134 19.5176 7.03135 19.5176C7.03135 19.5176 7.03136 19.5176 7.03137 19.5176C7.03137 19.5176 7.03138 19.5176 7.03138 19.5176C7.03139 19.5176 7.03139 19.5176 7.0314 19.5176C7.0314 19.5176 7.03141 19.5176 7.03142 19.5176C7.03142 19.5176 7.03143 19.5176 7.03143 19.5176C7.03144 19.5176 7.03145 19.5176 7.03145 19.5176C7.03146 19.5176 7.03146 19.5176 7.03147 19.5176C7.03148 19.5176 7.03148 19.5176 7.03149 19.5176C7.0315 19.5176 7.0315 19.5176 7.03151 19.5176C7.03152 19.5176 7.03152 19.5176 7.03153 19.5176C7.03154 19.5176 7.03154 19.5176 7.03155 19.5176C7.03156 19.5176 7.03157 19.5176 7.03157 19.5176C7.03158 19.5176 7.03159 19.5176 7.03159 19.5176C7.0316 19.5176 7.03161 19.5176 7.03162 19.5176C7.03162 19.5176 7.03163 19.5176 7.03164 19.5176C7.03165 19.5176 7.03166 19.5176 7.03166 19.5176C7.03167 19.5176 7.03168 19.5176 7.03169 19.5176C7.0317 19.5176 7.0317 19.5176 7.03171 19.5176C7.03172 19.5176 7.03173 19.5176 7.03174 19.5176C7.03175 19.5176 7.03175 19.5176 7.03176 19.5176C7.03177 19.5176 7.03178 19.5176 7.03179 19.5176C7.0318 19.5176 7.03181 19.5176 7.03182 19.5176C7.03182 19.5176 7.03183 19.5176 7.03184 19.5176C7.03185 19.5176 7.03186 19.5176 7.03187 19.5176C7.03188 19.5176 7.03189 19.5176 7.0319 19.5176C7.03191 19.5176 7.03192 19.5176 7.03193 19.5176C7.03194 19.5176 7.03195 19.5176 7.03196 19.5176C7.03197 19.5176 7.03198 19.5176 7.03199 19.5176C7.032 19.5176 7.03201 19.5176 7.03202 19.5176C7.03203 19.5176 7.03204 19.5176 7.03205 19.5176C7.03206 19.5176 7.03207 19.5176 7.03208 19.5176C7.03209 19.5176 7.0321 19.5176 7.03211 19.5176C7.03212 19.5176 7.03213 19.5176 7.03215 19.5176C7.03216 19.5176 7.03217 19.5176 7.03218 19.5176C7.03219 19.5176 7.0322 19.5176 7.03221 19.5176C7.03222 19.5176 7.03224 19.5176 7.03225 19.5176C7.03226 19.5176 7.03227 19.5176 7.03228 19.5176C7.03229 19.5176 7.03231 19.5176 7.03232 19.5176C7.03233 19.5176 7.03234 19.5176 7.03235 19.5176C7.03237 19.5176 7.03238 19.5176 7.03239 19.5176C7.0324 19.5176 7.03242 19.5176 7.03243 19.5176C7.03244 19.5176 7.03245 19.5176 7.03247 19.5176C7.03248 19.5176 7.03249 19.5176 7.03251 19.5176C7.03252 19.5176 7.03253 19.5176 7.03255 19.5176C7.03256 19.5176 7.03257 19.5176 7.03259 19.5176C7.0326 19.5176 7.03261 19.5176 7.03263 19.5176C7.03264 19.5176 7.03265 19.5176 7.03267 19.5176C7.03268 19.5176 7.03269 19.5176 7.03271 19.5176C7.03272 19.5176 7.03274 19.5176 7.03275 19.5176C7.03277 19.5176 7.03278 19.5176 7.03279 19.5176C7.03281 19.5176 7.03282 19.5176 7.03284 19.5176C7.03285 19.5176 7.03287 19.5176 7.03288 19.5176C7.0329 19.5176 7.03291 19.5176 7.03293 19.5176C7.03294 19.5176 7.03296 19.5176 7.03297 19.5176C7.03299 19.5176 7.033 19.5176 7.03302 19.5176C7.03303 19.5176 7.03305 19.5176 7.03307 19.5176C7.03308 19.5176 7.0331 19.5176 7.03311 19.5176C7.03313 19.5176 7.03314 19.5176 7.03316 19.5176C7.03318 19.5176 7.03319 19.5176 7.03321 19.5176C7.03323 19.5176 7.03324 19.5176 7.03326 19.5176C7.03328 19.5176 7.03329 19.5176 7.03331 19.5176C7.03333 19.5176 7.03334 19.5176 7.03336 19.5176C7.03338 19.5176 7.03339 19.5176 7.03341 19.5176C7.03343 19.5176 7.03345 19.5176 7.03346 19.5176C7.03348 19.5176 7.0335 19.5176 7.03352 19.5176C7.03353 19.5176 7.03355 19.5176 7.03357 19.5176C7.03359 19.5176 7.0336 19.5176 7.03362 19.5176C7.03364 19.5176 7.03366 19.5176 7.03368 19.5176C7.0337 19.5176 7.03371 19.5176 7.03373 19.5176C7.03375 19.5176 7.03377 19.5176 7.03379 19.5176C7.03381 19.5176 7.03383 19.5176 7.03384 19.5176C7.03386 19.5176 7.03388 19.5176 7.0339 19.5176C7.03392 19.5176 7.03394 19.5176 7.03396 19.5176C7.03398 19.5176 7.034 19.5176 7.03402 19.5176C7.03404 19.5176 7.03406 19.5176 7.03408 19.5176C7.0341 19.5176 7.03412 19.5176 7.03414 19.5176C7.03416 19.5176 7.03418 19.5176 7.0342 19.5176C7.03422 19.5176 7.03424 19.5176 7.03426 19.5176C7.03428 19.5176 7.0343 19.5176 7.03432 19.5176V17.5176C7.0343 17.5176 7.03428 17.5176 7.03426 17.5176C7.03424 17.5176 7.03422 17.5176 7.0342 17.5176C7.03418 17.5176 7.03416 17.5176 7.03414 17.5176C7.03412 17.5176 7.0341 17.5176 7.03408 17.5176C7.03406 17.5176 7.03404 17.5176 7.03402 17.5176C7.034 17.5176 7.03398 17.5176 7.03396 17.5176C7.03394 17.5176 7.03392 17.5176 7.0339 17.5176C7.03388 17.5176 7.03386 17.5176 7.03384 17.5176C7.03383 17.5176 7.03381 17.5176 7.03379 17.5176C7.03377 17.5176 7.03375 17.5176 7.03373 17.5176C7.03371 17.5176 7.0337 17.5176 7.03368 17.5176C7.03366 17.5176 7.03364 17.5176 7.03362 17.5176C7.0336 17.5176 7.03359 17.5176 7.03357 17.5176C7.03355 17.5176 7.03353 17.5176 7.03352 17.5176C7.0335 17.5176 7.03348 17.5176 7.03346 17.5176C7.03345 17.5176 7.03343 17.5176 7.03341 17.5176C7.03339 17.5176 7.03338 17.5176 7.03336 17.5176C7.03334 17.5176 7.03333 17.5176 7.03331 17.5176C7.03329 17.5176 7.03328 17.5176 7.03326 17.5176C7.03324 17.5176 7.03323 17.5176 7.03321 17.5176C7.03319 17.5176 7.03318 17.5176 7.03316 17.5176C7.03314 17.5176 7.03313 17.5176 7.03311 17.5176C7.0331 17.5176 7.03308 17.5176 7.03307 17.5176C7.03305 17.5176 7.03303 17.5176 7.03302 17.5176C7.033 17.5176 7.03299 17.5176 7.03297 17.5176C7.03296 17.5176 7.03294 17.5176 7.03293 17.5176C7.03291 17.5176 7.0329 17.5176 7.03288 17.5176C7.03287 17.5176 7.03285 17.5176 7.03284 17.5176C7.03282 17.5176 7.03281 17.5176 7.03279 17.5176C7.03278 17.5176 7.03277 17.5176 7.03275 17.5176C7.03274 17.5176 7.03272 17.5176 7.03271 17.5176C7.03269 17.5176 7.03268 17.5176 7.03267 17.5176C7.03265 17.5176 7.03264 17.5176 7.03263 17.5176C7.03261 17.5176 7.0326 17.5176 7.03259 17.5176C7.03257 17.5176 7.03256 17.5176 7.03255 17.5176C7.03253 17.5176 7.03252 17.5176 7.03251 17.5176C7.03249 17.5176 7.03248 17.5176 7.03247 17.5176C7.03245 17.5176 7.03244 17.5176 7.03243 17.5176C7.03242 17.5176 7.0324 17.5176 7.03239 17.5176C7.03238 17.5176 7.03237 17.5176 7.03235 17.5176C7.03234 17.5176 7.03233 17.5176 7.03232 17.5176C7.03231 17.5176 7.03229 17.5176 7.03228 17.5176C7.03227 17.5176 7.03226 17.5176 7.03225 17.5176C7.03224 17.5176 7.03222 17.5176 7.03221 17.5176C7.0322 17.5176 7.03219 17.5176 7.03218 17.5176C7.03217 17.5176 7.03216 17.5176 7.03215 17.5176C7.03213 17.5176 7.03212 17.5176 7.03211 17.5176C7.0321 17.5176 7.03209 17.5176 7.03208 17.5176C7.03207 17.5176 7.03206 17.5176 7.03205 17.5176C7.03204 17.5176 7.03203 17.5176 7.03202 17.5176C7.03201 17.5176 7.032 17.5176 7.03199 17.5176C7.03198 17.5176 7.03197 17.5176 7.03196 17.5176C7.03195 17.5176 7.03194 17.5176 7.03193 17.5176C7.03192 17.5176 7.03191 17.5176 7.0319 17.5176C7.03189 17.5176 7.03188 17.5176 7.03187 17.5176C7.03186 17.5176 7.03185 17.5176 7.03184 17.5176C7.03183 17.5176 7.03182 17.5176 7.03182 17.5176C7.03181 17.5176 7.0318 17.5176 7.03179 17.5176C7.03178 17.5176 7.03177 17.5176 7.03176 17.5176C7.03175 17.5176 7.03175 17.5176 7.03174 17.5176C7.03173 17.5176 7.03172 17.5176 7.03171 17.5176C7.0317 17.5176 7.0317 17.5176 7.03169 17.5176C7.03168 17.5176 7.03167 17.5176 7.03166 17.5176C7.03166 17.5176 7.03165 17.5176 7.03164 17.5176C7.03163 17.5176 7.03162 17.5176 7.03162 17.5176C7.03161 17.5176 7.0316 17.5176 7.03159 17.5176C7.03159 17.5176 7.03158 17.5176 7.03157 17.5176C7.03157 17.5176 7.03156 17.5176 7.03155 17.5176C7.03154 17.5176 7.03154 17.5176 7.03153 17.5176C7.03152 17.5176 7.03152 17.5176 7.03151 17.5176C7.0315 17.5176 7.0315 17.5176 7.03149 17.5176C7.03148 17.5176 7.03148 17.5176 7.03147 17.5176C7.03146 17.5176 7.03146 17.5176 7.03145 17.5176C7.03145 17.5176 7.03144 17.5176 7.03143 17.5176C7.03143 17.5176 7.03142 17.5176 7.03142 17.5176C7.03141 17.5176 7.0314 17.5176 7.0314 17.5176C7.03139 17.5176 7.03139 17.5176 7.03138 17.5176C7.03138 17.5176 7.03137 17.5176 7.03137 17.5176C7.03136 17.5176 7.03135 17.5176 7.03135 17.5176C7.03134 17.5176 7.03134 17.5176 7.03133 17.5176C7.03133 17.5176 7.03132 17.5176 7.03132 17.5176C7.03131 17.5176 7.03131 17.5176 7.03131 17.5176C7.0313 17.5176 7.0313 17.5176 7.03129 17.5176C7.03129 17.5176 7.03128 17.5176 7.03128 17.5176C7.03127 17.5176 7.03127 17.5176 7.03127 17.5176C7.03126 17.5176 7.03126 17.5176 7.03125 17.5176C7.03125 17.5176 7.03124 17.5176 7.03124 17.5176C7.03124 17.5176 7.03123 17.5176 7.03123 17.5176C7.03123 17.5176 7.03122 17.5176 7.03122 17.5176C7.03121 17.5176 7.03121 17.5176 7.03121 17.5176C7.0312 17.5176 7.0312 17.5176 7.0312 17.5176C7.03119 17.5176 7.03119 17.5176 7.03119 17.5176C7.03118 17.5176 7.03118 17.5176 7.03118 17.5176C7.03118 17.5176 7.03117 17.5176 7.03117 17.5176C7.03117 17.5176 7.03116 17.5176 7.03116 17.5176C7.03116 17.5176 7.03116 17.5176 7.03115 17.5176C7.03115 17.5176 7.03115 17.5176 7.03115 17.5176C7.03114 17.5176 7.03114 17.5176 7.03114 17.5176C7.03114 17.5176 7.03113 17.5176 7.03113 17.5176C7.03113 17.5176 7.03113 17.5176 7.03113 17.5176C7.03112 17.5176 7.03112 17.5176 7.03112 17.5176C7.03112 17.5176 7.03112 17.5176 7.03112 17.5176C7.03111 17.5176 7.03111 17.5176 7.03111 17.5176C7.03111 17.5176 7.03111 17.5176 7.03111 17.5176C7.03111 17.5176 7.0311 17.5176 7.0311 17.5176C7.0311 17.5176 7.0311 17.5176 7.0311 17.5176C7.0311 17.5176 7.0311 17.5176 7.0311 17.5176C7.03109 17.5176 7.03109 17.5176 7.03109 17.5176C7.03109 17.5176 7.03109 17.5176 7.03109 17.5176C7.03109 17.5176 7.03109 17.5176 7.03109 17.5176C7.03109 17.5176 7.03109 17.5176 7.03109 17.5176C7.03109 17.5176 7.03109 17.5176 7.03109 17.5176H7.03109H7.03109C7.03109 18.5176 7.03109 19.5176 7.03109 19.5176C7.03109 19.5176 7.03109 19.5176 7.03109 19.5176H7.03109C7.03109 19.5176 7.03109 19.5176 7.03109 19.5176C7.03109 19.5176 7.03109 19.5176 7.03109 19.5176C7.03109 19.5176 7.03109 19.5176 7.03109 19.5176C7.03109 19.5176 7.03109 19.5176 7.03109 19.5176C7.0311 19.5176 7.0311 19.5176 7.0311 19.5176C7.0311 19.5176 7.0311 19.5176 7.0311 19.5176C7.0311 19.5176 7.0311 19.5176 7.0311 19.5176C7.0311 19.5176 7.03111 19.5176 7.03111 19.5176C7.03111 19.5176 7.03111 19.5176 7.03111 19.5176C7.03111 19.5176 7.03111 19.5176 7.03112 19.5176C7.03112 19.5176 7.03112 19.5176 7.03112 19.5176C7.03112 19.5176 7.03112 19.5176 7.03113 19.5176C7.03113 19.5176 7.03113 19.5176 7.03113 19.5176C7.03113 19.5176 7.03114 19.5176 7.03114 19.5176C7.03114 19.5176 7.03114 19.5176 7.03114 19.5176C7.03115 19.5176 7.03115 19.5176 7.03115 19.5176C7.03115 19.5176 7.03116 19.5176 7.03116 19.5176C7.03116 19.5176 7.03116 19.5176 7.03117 19.5176C7.03117 19.5176 7.03117 19.5176 7.03117 19.5176C7.03118 19.5176 7.03118 19.5176 7.03118 19.5176C7.03118 19.5176 7.03119 19.5176 7.03119 19.5176C7.03119 19.5176 7.0312 19.5176 7.0312 19.5176C7.0312 19.5176 7.03121 19.5176 7.03121 19.5176C7.03121 19.5176 7.03121 19.5176 7.03122 19.5176C7.03122 19.5176 7.03122 19.5176 7.03123 19.5176C7.03123 19.5176 7.03123 19.5176 7.03124 19.5176C7.03124 19.5176 7.03124 19.5176 7.03125 19.5176C7.03125 19.5176 7.03125 19.5176 7.03126 19.5176C7.03126 19.5176 7.03127 19.5176 7.03127 19.5176C7.03127 19.5176 7.03128 19.5176 7.03128 19.5176C7.03128 19.5176 7.03129 19.5176 7.03129 19.5176C7.0313 19.5176 7.0313 19.5176 7.0313 19.5176C7.03131 19.5176 7.03131 19.5176 7.03132 19.5176C7.03132 19.5176 7.03132 19.5176 7.03133 19.5176C7.03133 19.5176 7.03134 19.5176 7.03134 19.5176C7.03135 19.5176 7.03135 19.5176 7.03136 19.5176C7.03136 19.5176 7.03136 19.5176 7.03137 19.5176C7.03137 19.5176 7.03138 19.5176 7.03138 19.5176C7.03139 19.5176 7.03139 19.5176 7.0314 19.5176C7.0314 19.5176 7.03141 19.5176 7.03141 19.5176C7.03142 19.5176 7.03142 19.5176 7.03143 19.5176C7.03143 19.5176 7.03144 19.5176 7.03144 19.5176C7.03145 19.5176 7.03145 19.5176 7.03146 19.5176C7.03146 19.5176 7.03147 19.5176 7.03147 19.5176C7.03148 19.5176 7.03148 19.5176 7.03149 19.5176C7.03149 19.5176 7.0315 19.5176 7.0315 19.5176C7.03151 19.5176 7.03151 19.5176 7.03152 19.5176C7.03152 19.5176 7.03153 19.5176 7.03153 19.5176C7.03154 19.5176 7.03155 19.5176 7.03155 19.5176C7.03156 19.5176 7.03156 19.5176 7.03157 19.5176C7.03157 19.5176 7.03158 19.5176 7.03159 19.5176C7.03159 19.5176 7.0316 19.5176 7.0316 19.5176C7.03161 19.5176 7.03161 19.5176 7.03162 19.5176C7.03163 19.5176 7.03163 19.5176 7.03164 19.5176C7.03164 19.5176 7.03165 19.5176 7.03166 19.5176C7.03166 19.5176 7.03167 19.5176 7.03168 19.5176C7.03168 19.5176 7.03169 19.5176 7.03169 19.5176C7.0317 19.5176 7.03171 19.5176 7.03171 19.5176C7.03172 19.5176 7.03173 19.5176 7.03173 19.5176C7.03174 19.5176 7.03174 19.5176 7.03175 19.5176C7.03176 19.5176 7.03176 19.5176 7.03177 19.5176C7.03178 19.5176 7.03178 19.5176 7.03179 19.5176C7.0318 19.5176 7.0318 19.5176 7.03181 19.5176C7.03182 19.5176 7.03182 19.5176 7.03183 19.5176C7.03184 19.5176 7.03185 19.5176 7.03185 19.5176C7.03186 19.5176 7.03187 19.5176 7.03187 19.5176C7.03188 19.5176 7.03189 19.5176 7.03189 19.5176C7.0319 19.5176 7.03191 19.5176 7.03191 19.5176C7.03192 19.5176 7.03193 19.5176 7.03194 19.5176C7.03194 19.5176 7.03195 19.5176 7.03196 19.5176C7.03196 19.5176 7.03197 19.5176 7.03198 19.5176C7.03199 19.5176 7.03199 19.5176 7.032 19.5176C7.03201 19.5176 7.03202 19.5176 7.03202 19.5176C7.03203 19.5176 7.03204 19.5176 7.03205 19.5176C7.03205 19.5176 7.03206 19.5176 7.03207 19.5176C7.03208 19.5176 7.03208 19.5176 7.03209 19.5176C7.0321 19.5176 7.03211 19.5176 7.03211 19.5176C7.03212 19.5176 7.03213 19.5176 7.03214 19.5176C7.03214 19.5176 7.03215 19.5176 7.03216 19.5176C7.03217 19.5176 7.03218 19.5176 7.03218 19.5176C7.03219 19.5176 7.0322 19.5176 7.03221 19.5176C7.03222 19.5176 7.03222 19.5176 7.03223 19.5176C7.03224 19.5176 7.03225 19.5176 7.03225 19.5176C7.03226 19.5176 7.03227 19.5176 7.03228 19.5176C7.03229 19.5176 7.0323 19.5176 7.0323 19.5176C7.03231 19.5176 7.03232 19.5176 7.03233 19.5176C7.03234 19.5176 7.03234 19.5176 7.03235 19.5176C7.03236 19.5176 7.03237 19.5176 7.03238 19.5176C7.03239 19.5176 7.03239 19.5176 7.0324 19.5176C7.03241 19.5176 7.03242 19.5176 7.03243 19.5176C7.03244 19.5176 7.03244 19.5176 7.03245 19.5176C7.03246 19.5176 7.03247 19.5176 7.03248 19.5176C7.03249 19.5176 7.03249 19.5176 7.0325 19.5176C7.03251 19.5176 7.03252 19.5176 7.03253 19.5176C7.03254 19.5176 7.03255 19.5176 7.03255 19.5176C7.03256 19.5176 7.03257 19.5176 7.03258 19.5176C7.03259 19.5176 7.0326 19.5176 7.03261 19.5176C7.03261 19.5176 7.03262 19.5176 7.03263 19.5176C7.03264 19.5176 7.03265 19.5176 7.03266 19.5176C7.03267 19.5176 7.03268 19.5176 7.03268 19.5176C7.03269 19.5176 7.0327 19.5176 7.03271 19.5176C7.03272 19.5176 7.03273 19.5176 7.03274 19.5176C7.03275 19.5176 7.03276 19.5176 7.03276 19.5176C7.03277 19.5176 7.03278 19.5176 7.03279 19.5176C7.0328 19.5176 7.03281 19.5176 7.03282 19.5176C7.03283 19.5176 7.03284 19.5176 7.03285 19.5176C7.03285 19.5176 7.03286 19.5176 7.03287 19.5176C7.03288 19.5176 7.03289 19.5176 7.0329 19.5176C7.03291 19.5176 7.03292 19.5176 7.03293 19.5176C7.03294 19.5176 7.03295 19.5176 7.03296 19.5176C7.03296 19.5176 7.03297 19.5176 7.03298 19.5176C7.03299 19.5176 7.033 19.5176 7.03301 19.5176C7.03302 19.5176 7.03303 19.5176 7.03304 19.5176C7.03305 19.5176 7.03306 19.5176 7.03307 19.5176C7.03307 19.5176 7.03308 19.5176 7.03309 19.5176C7.0331 19.5176 7.03311 19.5176 7.03312 19.5176C7.03313 19.5176 7.03314 19.5176 7.03315 19.5176C7.03316 19.5176 7.03317 19.5176 7.03318 19.5176C7.03319 19.5176 7.0332 19.5176 7.03321 19.5176C7.03322 19.5176 7.03323 19.5176 7.03323 19.5176C7.03324 19.5176 7.03325 19.5176 7.03326 19.5176C7.03327 19.5176 7.03328 19.5176 7.03329 19.5176C7.0333 19.5176 7.03331 19.5176 7.03332 19.5176C7.03333 19.5176 7.03334 19.5176 7.03335 19.5176C7.03336 19.5176 7.03337 19.5176 7.03338 19.5176C7.03339 19.5176 7.0334 19.5176 7.03341 19.5176C7.03342 19.5176 7.03342 19.5176 7.03343 19.5176C7.03344 19.5176 7.03345 19.5176 7.03346 19.5176C7.03347 19.5176 7.03348 19.5176 7.03349 19.5176C7.0335 19.5176 7.03351 19.5176 7.03352 19.5176C7.03353 19.5176 7.03354 19.5176 7.03355 19.5176C7.03356 19.5176 7.03357 19.5176 7.03358 19.5176C7.03359 19.5176 7.0336 19.5176 7.03361 19.5176C7.03362 19.5176 7.03363 19.5176 7.03364 19.5176C7.03365 19.5176 7.03366 19.5176 7.03367 19.5176C7.03368 19.5176 7.03368 19.5176 7.03369 19.5176C7.0337 19.5176 7.03371 19.5176 7.03372 19.5176C7.03373 19.5176 7.03374 19.5176 7.03375 19.5176C7.03376 19.5176 7.03377 19.5176 7.03378 19.5176C7.03379 19.5176 7.0338 19.5176 7.03381 19.5176C7.03382 19.5176 7.03383 19.5176 7.03384 19.5176C7.03385 19.5176 7.03386 19.5176 7.03387 19.5176C7.03388 19.5176 7.03389 19.5176 7.0339 19.5176C7.03391 19.5176 7.03392 19.5176 7.03393 19.5176C7.03394 19.5176 7.03395 19.5176 7.03396 19.5176C7.03397 19.5176 7.03398 19.5176 7.03399 19.5176C7.034 19.5176 7.03401 19.5176 7.03402 19.5176C7.03402 19.5176 7.03403 19.5176 7.03404 19.5176C7.03405 19.5176 7.03406 19.5176 7.03407 19.5176C7.03408 19.5176 7.03409 19.5176 7.0341 19.5176C7.03411 19.5176 7.03412 19.5176 7.03413 19.5176C7.03414 19.5176 7.03415 19.5176 7.03416 19.5176C7.03417 19.5176 7.03418 19.5176 7.03419 19.5176C7.0342 19.5176 7.03421 19.5176 7.03422 19.5176C7.03423 19.5176 7.03424 19.5176 7.03425 19.5176C7.03426 19.5176 7.03427 19.5176 7.03428 19.5176C7.03429 19.5176 7.0343 19.5176 7.03431 19.5176C7.03432 19.5176 7.03433 19.5176 7.03434 19.5176C7.03434 19.5176 7.03435 19.5176 7.03436 19.5176C7.03437 19.5176 7.03438 19.5176 7.03439 19.5176C7.0344 19.5176 7.03441 19.5176 7.03442 19.5176C7.03443 19.5176 7.03444 19.5176 7.03445 19.5176C7.03446 19.5176 7.03447 19.5176 7.03448 19.5176C7.03449 19.5176 7.0345 19.5176 7.03451 19.5176C7.03452 19.5176 7.03453 19.5176 7.03454 19.5176C7.03455 19.5176 7.03456 19.5176 7.03457 19.5176C7.03457 19.5176 7.03458 19.5176 7.03459 19.5176C7.0346 19.5176 7.03461 19.5176 7.03462 19.5176C7.03463 19.5176 7.03464 19.5176 7.03465 19.5176C7.03466 19.5176 7.03467 19.5176 7.03468 19.5176C7.03469 19.5176 7.0347 19.5176 7.03471 19.5176C7.03472 19.5176 7.03473 19.5176 7.03474 19.5176C7.03475 19.5176 7.03475 19.5176 7.03476 19.5176C7.03477 19.5176 7.03478 19.5176 7.03479 19.5176C7.0348 19.5176 7.03481 19.5176 7.03482 19.5176C7.03483 19.5176 7.03484 19.5176 7.03485 19.5176C7.03486 19.5176 7.03487 19.5176 7.03488 19.5176C7.03489 19.5176 7.03489 19.5176 7.0349 19.5176C7.03491 19.5176 7.03492 19.5176 7.03493 19.5176C7.03494 19.5176 7.03495 19.5176 7.03496 19.5176C7.03497 19.5176 7.03498 19.5176 7.03499 19.5176C7.035 19.5176 7.035 19.5176 7.03501 19.5176C7.03502 19.5176 7.03503 19.5176 7.03504 19.5176C7.03505 19.5176 7.03506 19.5176 7.03507 19.5176C7.03508 19.5176 7.03509 19.5176 7.0351 19.5176C7.0351 19.5176 7.03511 19.5176 7.03512 19.5176C7.03513 19.5176 7.03514 19.5176 7.03515 19.5176C7.03516 19.5176 7.03517 19.5176 7.03518 19.5176C7.03519 19.5176 7.03519 19.5176 7.0352 19.5176C7.03521 19.5176 7.03522 19.5176 7.03523 19.5176C7.03524 19.5176 7.03525 19.5176 7.03526 19.5176C7.03526 19.5176 7.03527 19.5176 7.03528 19.5176C7.03529 19.5176 7.0353 19.5176 7.03531 19.5176C7.03532 19.5176 7.03533 19.5176 7.03533 19.5176C7.03534 19.5176 7.03535 19.5176 7.03536 19.5176C7.03537 19.5176 7.03538 19.5176 7.03539 19.5176C7.03539 19.5176 7.0354 19.5176 7.03541 19.5176C7.03542 19.5176 7.03543 19.5176 7.03544 19.5176C7.03545 19.5176 7.03545 19.5176 7.03546 19.5176C7.03547 19.5176 7.03548 19.5176 7.03549 19.5176C7.0355 19.5176 7.0355 19.5176 7.03551 19.5176C7.03552 19.5176 7.03553 19.5176 7.03554 19.5176C7.03555 19.5176 7.03555 19.5176 7.03556 19.5176C7.03557 19.5176 7.03558 19.5176 7.03559 19.5176C7.0356 19.5176 7.0356 19.5176 7.03561 19.5176C7.03562 19.5176 7.03563 19.5176 7.03564 19.5176C7.03564 19.5176 7.03565 19.5176 7.03566 19.5176C7.03567 19.5176 7.03568 19.5176 7.03568 19.5176C7.03569 19.5176 7.0357 19.5176 7.03571 19.5176C7.03572 19.5176 7.03572 19.5176 7.03573 19.5176C7.03574 19.5176 7.03575 19.5176 7.03576 19.5176C7.03576 19.5176 7.03577 19.5176 7.03578 19.5176C7.03579 19.5176 7.03579 19.5176 7.0358 19.5176C7.03581 19.5176 7.03582 19.5176 7.03582 19.5176C7.03583 19.5176 7.03584 19.5176 7.03585 19.5176C7.03586 19.5176 7.03586 19.5176 7.03587 19.5176C7.03588 19.5176 7.03589 19.5176 7.03589 19.5176C7.0359 19.5176 7.03591 19.5176 7.03591 19.5176C7.03592 19.5176 7.03593 19.5176 7.03594 19.5176C7.03594 19.5176 7.03595 19.5176 7.03596 19.5176C7.03597 19.5176 7.03597 19.5176 7.03598 19.5176C7.03599 19.5176 7.03599 19.5176 7.036 19.5176C7.03601 19.5176 7.03602 19.5176 7.03602 19.5176C7.03603 19.5176 7.03604 19.5176 7.03604 19.5176C7.03605 19.5176 7.03606 19.5176 7.03606 19.5176C7.03607 19.5176 7.03608 19.5176 7.03609 19.5176C7.03609 19.5176 7.0361 19.5176 7.03611 19.5176C7.03611 19.5176 7.03612 19.5176 7.03613 19.5176C7.03613 19.5176 7.03614 19.5176 7.03615 19.5176C7.03615 19.5176 7.03616 19.5176 7.03617 19.5176C7.03617 19.5176 7.03618 19.5176 7.03618 19.5176C7.03619 19.5176 7.0362 19.5176 7.0362 19.5176C7.03621 19.5176 7.03622 19.5176 7.03622 19.5176C7.03623 19.5176 7.03624 19.5176 7.03624 19.5176C7.03625 19.5176 7.03625 19.5176 7.03626 19.5176C7.03627 19.5176 7.03627 19.5176 7.03628 19.5176C7.03628 19.5176 7.03629 19.5176 7.0363 19.5176C7.0363 19.5176 7.03631 19.5176 7.03631 19.5176C7.03632 19.5176 7.03633 19.5176 7.03633 19.5176C7.03634 19.5176 7.03634 19.5176 7.03635 19.5176C7.03636 19.5176 7.03636 19.5176 7.03637 19.5176C7.03637 19.5176 7.03638 19.5176 7.03638 19.5176C7.03639 19.5176 7.03639 19.5176 7.0364 19.5176C7.03641 19.5176 7.03641 19.5176 7.03642 19.5176C7.03642 19.5176 7.03643 19.5176 7.03643 19.5176C7.03644 19.5176 7.03644 19.5176 7.03645 19.5176C7.03645 19.5176 7.03646 19.5176 7.03646 19.5176C7.03647 19.5176 7.03647 19.5176 7.03648 19.5176C7.03648 19.5176 7.03649 19.5176 7.03649 19.5176C7.0365 19.5176 7.0365 19.5176 7.03651 19.5176C7.03651 19.5176 7.03652 19.5176 7.03652 19.5176C7.03653 19.5176 7.03653 19.5176 7.03654 19.5176C7.03654 19.5176 7.03655 19.5176 7.03655 19.5176C7.03656 19.5176 7.03656 19.5176 7.03656 19.5176C7.03657 19.5176 7.03657 19.5176 7.03658 19.5176C7.03658 19.5176 7.03659 19.5176 7.03659 19.5176C7.03659 19.5176 7.0366 19.5176 7.0366 19.5176C7.03661 19.5176 7.03661 19.5176 7.03662 19.5176C7.03662 19.5176 7.03662 19.5176 7.03663 19.5176C7.03663 19.5176 7.03664 19.5176 7.03664 19.5176C7.03664 19.5176 7.03665 19.5176 7.03665 19.5176C7.03665 19.5176 7.03666 19.5176 7.03666 19.5176C7.03667 19.5176 7.03667 19.5176 7.03667 19.5176C7.03668 19.5176 7.03668 19.5176 7.03668 19.5176C7.03669 19.5176 7.03669 19.5176 7.03669 19.5176C7.0367 19.5176 7.0367 19.5176 7.0367 19.5176C7.03671 19.5176 7.03671 19.5176 7.03671 19.5176C7.03672 19.5176 7.03672 19.5176 7.03672 19.5176C7.03673 19.5176 7.03673 19.5176 7.03673 19.5176C7.03673 19.5176 7.03674 19.5176 7.03674 19.5176C7.03674 19.5176 7.03675 19.5176 7.03675 19.5176C7.03675 19.5176 7.03675 19.5176 7.03676 19.5176C7.03676 19.5176 7.03676 19.5176 7.03676 19.5176C7.03677 19.5176 7.03677 19.5176 7.03677 19.5176C7.03677 19.5176 7.03678 19.5176 7.03678 19.5176C7.03678 19.5176 7.03678 19.5176 7.03678 19.5176C7.03679 19.5176 7.03679 19.5176 7.03679 19.5176C7.03679 19.5176 7.03679 19.5176 7.0368 19.5176C7.0368 19.5176 7.0368 19.5176 7.0368 19.5176C7.0368 19.5176 7.0368 19.5176 7.03681 19.5176C7.03681 19.5176 7.03681 19.5176 7.03681 19.5176C7.03681 19.5176 7.03681 19.5176 7.03682 19.5176C7.03682 19.5176 7.03682 19.5176 7.03682 19.5176C7.03682 19.5176 7.03682 19.5176 7.03682 19.5176C7.03682 19.5176 7.03683 19.5176 7.03683 19.5176C7.03683 19.5176 7.03683 19.5176 7.03683 19.5176C7.03683 19.5176 7.03683 19.5176 7.03683 19.5176C7.03683 19.5176 7.03683 19.5176 7.03683 19.5176C7.03684 19.5176 7.03684 19.5176 7.03684 19.5176C7.03684 19.5176 7.03684 19.5176 7.03684 19.5176C7.03684 19.5176 7.03684 19.5176 7.03684 19.5176C7.03684 19.5176 7.03684 19.5176 7.03684 19.5176C7.03684 19.5176 7.03684 19.5176 7.03684 19.5176C7.03684 18.5176 7.03684 17.5176 7.03684 17.5176C7.03684 17.5176 7.03684 17.5176 7.03684 17.5176C7.03684 17.5176 7.03684 17.5176 7.03684 17.5176C7.03684 17.5176 7.03684 17.5176 7.03684 17.5176C7.03684 17.5176 7.03684 17.5176 7.03683 17.5176C7.03683 17.5176 7.03683 17.5176 7.03683 17.5176C7.03683 17.5176 7.03683 17.5176 7.03683 17.5176C7.03683 17.5176 7.03683 17.5176 7.03683 17.5176C7.03683 17.5176 7.03682 17.5176 7.03682 17.5176C7.03682 17.5176 7.03682 17.5176 7.03682 17.5176C7.03682 17.5176 7.03682 17.5176 7.03682 17.5176C7.03681 17.5176 7.03681 17.5176 7.03681 17.5176C7.03681 17.5176 7.03681 17.5176 7.03681 17.5176C7.0368 17.5176 7.0368 17.5176 7.0368 17.5176C7.0368 17.5176 7.0368 17.5176 7.03679 17.5176C7.03679 17.5176 7.03679 17.5176 7.03679 17.5176C7.03679 17.5176 7.03678 17.5176 7.03678 17.5176C7.03678 17.5176 7.03678 17.5176 7.03677 17.5176C7.03677 17.5176 7.03677 17.5176 7.03677 17.5176C7.03676 17.5176 7.03676 17.5176 7.03676 17.5176C7.03676 17.5176 7.03675 17.5176 7.03675 17.5176C7.03675 17.5176 7.03674 17.5176 7.03674 17.5176C7.03674 17.5176 7.03673 17.5176 7.03673 17.5176C7.03673 17.5176 7.03672 17.5176 7.03672 17.5176C7.03672 17.5176 7.03671 17.5176 7.03671 17.5176C7.03671 17.5176 7.0367 17.5176 7.0367 17.5176C7.0367 17.5176 7.03669 17.5176 7.03669 17.5176C7.03668 17.5176 7.03668 17.5176 7.03668 17.5176C7.03667 17.5176 7.03667 17.5176 7.03666 17.5176C7.03666 17.5176 7.03666 17.5176 7.03665 17.5176C7.03665 17.5176 7.03664 17.5176 7.03664 17.5176C7.03663 17.5176 7.03663 17.5176 7.03662 17.5176C7.03662 17.5176 7.03662 17.5176 7.03661 17.5176C7.03661 17.5176 7.0366 17.5176 7.0366 17.5176C7.03659 17.5176 7.03659 17.5176 7.03658 17.5176C7.03658 17.5176 7.03657 17.5176 7.03657 17.5176C7.03656 17.5176 7.03655 17.5176 7.03655 17.5176C7.03654 17.5176 7.03654 17.5176 7.03653 17.5176C7.03653 17.5176 7.03652 17.5176 7.03652 17.5176C7.03651 17.5176 7.0365 17.5176 7.0365 17.5176C7.03649 17.5176 7.03649 17.5176 7.03648 17.5176C7.03647 17.5176 7.03647 17.5176 7.03646 17.5176C7.03645 17.5176 7.03645 17.5176 7.03644 17.5176C7.03644 17.5176 7.03643 17.5176 7.03642 17.5176C7.03642 17.5176 7.03641 17.5176 7.0364 17.5176C7.0364 17.5176 7.03639 17.5176 7.03638 17.5176C7.03637 17.5176 7.03637 17.5176 7.03636 17.5176C7.03635 17.5176 7.03635 17.5176 7.03634 17.5176C7.03633 17.5176 7.03632 17.5176 7.03632 17.5176C7.03631 17.5176 7.0363 17.5176 7.03629 17.5176C7.03629 17.5176 7.03628 17.5176 7.03627 17.5176C7.03626 17.5176 7.03625 17.5176 7.03625 17.5176C7.03624 17.5176 7.03623 17.5176 7.03622 17.5176C7.03621 17.5176 7.03621 17.5176 7.0362 17.5176C7.03619 17.5176 7.03618 17.5176 7.03617 17.5176C7.03616 17.5176 7.03615 17.5176 7.03615 17.5176C7.03614 17.5176 7.03613 17.5176 7.03612 17.5176C7.03611 17.5176 7.0361 17.5176 7.03609 17.5176C7.03608 17.5176 7.03607 17.5176 7.03607 17.5176C7.03606 17.5176 7.03605 17.5176 7.03604 17.5176C7.03603 17.5176 7.03602 17.5176 7.03601 17.5176C7.036 17.5176 7.03599 17.5176 7.03598 17.5176C7.03597 17.5176 7.03596 17.5176 7.03595 17.5176C7.03594 17.5176 7.03593 17.5176 7.03592 17.5176C7.03591 17.5176 7.0359 17.5176 7.03589 17.5176C7.03588 17.5176 7.03587 17.5176 7.03586 17.5176C7.03585 17.5176 7.03584 17.5176 7.03582 17.5176C7.03581 17.5176 7.0358 17.5176 7.03579 17.5176C7.03578 17.5176 7.03577 17.5176 7.03576 17.5176C7.03575 17.5176 7.03574 17.5176 7.03573 17.5176C7.03571 17.5176 7.0357 17.5176 7.03569 17.5176C7.03568 17.5176 7.03567 17.5176 7.03566 17.5176C7.03564 17.5176 7.03563 17.5176 7.03562 17.5176C7.03561 17.5176 7.0356 17.5176 7.03558 17.5176C7.03557 17.5176 7.03556 17.5176 7.03555 17.5176C7.03553 17.5176 7.03552 17.5176 7.03551 17.5176C7.0355 17.5176 7.03548 17.5176 7.03547 17.5176C7.03546 17.5176 7.03545 17.5176 7.03543 17.5176C7.03542 17.5176 7.03541 17.5176 7.03539 17.5176C7.03538 17.5176 7.03537 17.5176 7.03535 17.5176C7.03534 17.5176 7.03533 17.5176 7.03531 17.5176C7.0353 17.5176 7.03529 17.5176 7.03527 17.5176C7.03526 17.5176 7.03525 17.5176 7.03523 17.5176C7.03522 17.5176 7.0352 17.5176 7.03519 17.5176C7.03518 17.5176 7.03516 17.5176 7.03515 17.5176C7.03513 17.5176 7.03512 17.5176 7.0351 17.5176C7.03509 17.5176 7.03507 17.5176 7.03506 17.5176C7.03504 17.5176 7.03503 17.5176 7.03502 17.5176C7.035 17.5176 7.03499 17.5176 7.03497 17.5176C7.03495 17.5176 7.03494 17.5176 7.03492 17.5176C7.03491 17.5176 7.03489 17.5176 7.03488 17.5176C7.03486 17.5176 7.03485 17.5176 7.03483 17.5176C7.03481 17.5176 7.0348 17.5176 7.03478 17.5176C7.03477 17.5176 7.03475 17.5176 7.03473 17.5176C7.03472 17.5176 7.0347 17.5176 7.03468 17.5176C7.03467 17.5176 7.03465 17.5176 7.03464 17.5176C7.03462 17.5176 7.0346 17.5176 7.03458 17.5176C7.03457 17.5176 7.03455 17.5176 7.03453 17.5176C7.03452 17.5176 7.0345 17.5176 7.03448 17.5176C7.03446 17.5176 7.03445 17.5176 7.03443 17.5176C7.03441 17.5176 7.03439 17.5176 7.03438 17.5176C7.03436 17.5176 7.03434 17.5176 7.03432 17.5176V19.5176ZM7.02363 19.5175C7.02461 19.5175 7.02457 19.5175 7.02391 19.5175C7.02357 19.5175 7.02264 19.5175 7.02132 19.5175C7.0204 19.5175 7.01726 19.5174 7.01312 19.5173C7.01115 19.5172 7.00693 19.5171 7.00154 19.5169C6.99882 19.5168 6.99443 19.5166 6.98901 19.5164C6.98624 19.5162 6.98259 19.516 6.9783 19.5158C6.97418 19.5155 6.9682 19.5151 6.96101 19.5145C6.95794 19.5143 6.95127 19.5137 6.94766 19.5134C6.94332 19.513 6.93371 19.512 6.92844 19.5114C6.92184 19.5106 6.90682 19.5087 6.8984 19.5076C6.8872 19.5059 6.86054 19.5014 6.84511 19.4985C6.82224 19.4936 6.7629 19.4785 6.72671 19.4673C6.65988 19.4426 6.45331 19.3274 6.32772 19.2195C6.10444 18.8706 6.13801 18.0861 6.36965 17.7757C6.48948 17.6829 6.68307 17.5836 6.74575 17.562C6.78043 17.552 6.83727 17.5384 6.85921 17.5342C6.87421 17.5315 6.9001 17.5275 6.91096 17.526C6.91921 17.525 6.9339 17.5233 6.94034 17.5227C6.94553 17.5221 6.95498 17.5213 6.95923 17.5209C6.96897 17.5201 6.97694 17.5196 6.98205 17.5194C6.98745 17.519 6.992 17.5188 6.99533 17.5187C7.00182 17.5184 7.00705 17.5182 7.01011 17.5181C7.01343 17.518 7.01619 17.518 7.01811 17.5179C7.02188 17.5178 7.02487 17.5178 7.0265 17.5178C7.02978 17.5177 7.03228 17.5177 7.03318 17.5177C7.03435 17.5177 7.03522 17.5177 7.03563 17.5177C7.03609 17.5177 7.03639 17.5177 7.03649 17.5177C7.03668 17.5177 7.03659 17.5177 7.03616 17.5177C7.0353 17.5177 7.03405 17.5177 7.03277 17.5177C7.03135 17.5177 7.03076 17.5177 7.03102 17.5177C7.03115 17.5177 7.0315 17.5177 7.03204 17.5177C7.03249 17.5177 7.03358 17.5177 7.03505 17.5177C7.0358 17.5177 7.03696 17.5177 7.03839 17.5178C7.03967 17.5178 7.0421 17.5178 7.04517 17.5179C7.04675 17.5179 7.04904 17.518 7.05182 17.5181C7.05435 17.5182 7.05887 17.5183 7.06453 17.5186C7.06743 17.5187 7.07152 17.5189 7.07644 17.5191C7.081 17.5194 7.08863 17.5199 7.09809 17.5206C7.10233 17.5209 7.11191 17.5218 7.11724 17.5223C7.12413 17.5229 7.14027 17.5248 7.14953 17.5259C7.16257 17.5277 7.19539 17.5329 7.21513 17.5366C7.2483 17.5438 7.34736 17.5724 7.41195 17.5972C7.58173 17.6897 7.99931 18.3108 7.95496 18.8748C7.77926 19.1695 7.42073 19.4342 7.32278 19.471C7.27925 19.4837 7.21065 19.4994 7.186 19.5039C7.17047 19.5064 7.14417 19.51 7.13342 19.5113C7.12561 19.5121 7.11181 19.5135 7.10584 19.514C7.10116 19.5144 7.09269 19.515 7.0889 19.5153C7.08037 19.5159 7.07345 19.5162 7.06918 19.5164C7.06463 19.5167 7.06082 19.5168 7.05808 19.5169C7.05526 19.517 7.05284 19.5171 7.05096 19.5172C7.0473 19.5173 7.04431 19.5173 7.0424 19.5174C7.03864 19.5175 7.03569 19.5175 7.03427 19.5175C7.03263 19.5175 7.03132 19.5175 7.03051 19.5176C7.02785 19.5176 7.02612 19.5176 7.02673 19.5176C7.02725 19.5176 7.02936 19.5176 7.03409 19.5176L7.03455 17.5176C7.02929 17.5176 7.02469 17.5176 7.02099 17.5176C7.01949 17.5176 7.01629 17.5176 7.01268 17.5176C7.01163 17.5176 7.01011 17.5177 7.0083 17.5177C7.00671 17.5177 7.00362 17.5177 6.99975 17.5178C6.99779 17.5179 6.99475 17.5179 6.99105 17.518C6.98915 17.5181 6.98671 17.5182 6.98388 17.5183C6.98113 17.5184 6.9773 17.5185 6.97273 17.5188C6.96845 17.519 6.96152 17.5193 6.95299 17.5199C6.94919 17.5202 6.94071 17.5208 6.93603 17.5212C6.93005 17.5217 6.91626 17.5231 6.90844 17.524C6.89769 17.5252 6.87138 17.5288 6.85586 17.5313C6.83121 17.5358 6.7626 17.5515 6.71907 17.5643C6.62112 17.601 6.26259 17.8657 6.08689 18.1604C6.04254 18.7244 6.46011 19.3456 6.6299 19.438C6.69449 19.4628 6.79355 19.4914 6.82673 19.4986C6.84647 19.5023 6.87929 19.5075 6.89233 19.5093C6.90159 19.5105 6.91774 19.5123 6.92462 19.513C6.92997 19.5135 6.93955 19.5143 6.94379 19.5146C6.95325 19.5154 6.9609 19.5158 6.96547 19.5161C6.9704 19.5163 6.97451 19.5165 6.97742 19.5167C6.9831 19.5169 6.98766 19.5171 6.99023 19.5171C6.99305 19.5172 6.9954 19.5173 6.99703 19.5173C7.00021 19.5174 7.00278 19.5174 7.00421 19.5175C7.0058 19.5175 7.00714 19.5175 7.00809 19.5175C7.01139 19.5176 7.01424 19.5176 7.01547 19.5176C7.01853 19.5176 7.02173 19.5176 7.02434 19.5177C7.02709 19.5177 7.03012 19.5177 7.03302 19.5177C7.03447 19.5177 7.03612 19.5177 7.03784 19.5177C7.0393 19.5177 7.04193 19.5177 7.04496 19.5177C7.04636 19.5177 7.04927 19.5176 7.05288 19.5176C7.05466 19.5176 7.05779 19.5175 7.06167 19.5174C7.06365 19.5174 7.06646 19.5173 7.06983 19.5172C7.07293 19.5171 7.0782 19.517 7.08472 19.5167C7.08806 19.5165 7.09263 19.5163 7.09804 19.516C7.10317 19.5157 7.11114 19.5152 7.1209 19.5144C7.12515 19.514 7.1346 19.5132 7.1398 19.5127C7.14624 19.512 7.16094 19.5103 7.16919 19.5093C7.18005 19.5078 7.20595 19.5038 7.22095 19.5012C7.24289 19.4969 7.29973 19.4834 7.33441 19.4734C7.3971 19.4518 7.59069 19.3524 7.71051 19.2596C7.94215 18.9493 7.97572 18.1647 7.75244 17.8158C7.62686 17.7079 7.42028 17.5928 7.35345 17.568C7.31726 17.5568 7.25792 17.5417 7.23505 17.5369C7.21962 17.5339 7.19295 17.5294 7.18175 17.5277C7.17333 17.5266 7.15831 17.5247 7.1517 17.5239C7.14643 17.5233 7.13681 17.5224 7.13246 17.5219C7.12885 17.5216 7.12217 17.521 7.1191 17.5208C7.11189 17.5202 7.10591 17.5198 7.10177 17.5196C7.09747 17.5193 7.0938 17.5191 7.09101 17.519C7.08555 17.5187 7.08112 17.5185 7.07834 17.5184C7.07285 17.5182 7.06849 17.5181 7.06636 17.518C7.06188 17.5179 7.05828 17.5178 7.05677 17.5178C7.05485 17.5178 7.05318 17.5177 7.05196 17.5177C7.04952 17.5177 7.04711 17.5177 7.04501 17.5176L7.02363 19.5175ZM3.48927 18.356C4.45413 18.9832 5.66926 19.503 7.02358 19.5175L7.04507 17.5176C6.18918 17.5084 5.34284 17.1755 4.57938 16.6792L3.48927 18.356ZM0.0343813 13.5284C0.0617849 16.0565 2.02569 17.4045 3.48927 18.356L4.57938 16.6792C3.01548 15.6625 2.04877 14.8447 2.03426 13.5067L0.0343813 13.5284ZM0.0343226 13.5176C0.0343226 13.5244 0.0343174 13.5282 0.0343127 13.53C0.0343099 13.531 0.0343097 13.5303 0.0343212 13.5288C0.0343252 13.5282 0.0343444 13.5255 0.034399 13.5219C0.034423 13.5203 0.0344891 13.5161 0.0346336 13.5106C0.0347041 13.508 0.0348495 13.5028 0.0351131 13.4964C0.0352476 13.4931 0.0354646 13.4882 0.035794 13.4822C0.0359393 13.4796 0.0362816 13.474 0.0364813 13.4709C0.0367385 13.4672 0.0373667 13.4587 0.0377452 13.4541C0.0382637 13.4481 0.0396061 13.4342 0.0404567 13.4263C0.0417458 13.4153 0.045458 13.3882 0.0480224 13.372C0.0527686 13.3459 0.0703458 13.2711 0.0849078 13.2231C0.131597 13.107 0.506577 12.6879 0.923417 12.5435C1.43103 12.6194 1.91401 13.0618 1.97459 13.197C1.9923 13.2506 2.01324 13.3333 2.01872 13.3616C2.02164 13.3788 2.02584 13.4077 2.02728 13.4192C2.02823 13.4275 2.02972 13.442 2.0303 13.4482C2.03072 13.4531 2.03142 13.4618 2.0317 13.4656C2.03193 13.4688 2.03231 13.4746 2.03247 13.4773C2.03284 13.4834 2.03308 13.4884 2.03323 13.4918C2.03353 13.4983 2.0337 13.5035 2.03379 13.5062C2.03396 13.5117 2.03404 13.516 2.03408 13.5176C2.03412 13.5197 2.03414 13.5214 2.03415 13.5223C2.03418 13.5242 2.0342 13.5256 2.0342 13.5261C2.03421 13.5267 2.03421 13.527 2.03421 13.5271C2.03421 13.5272 2.03421 13.527 2.0342 13.5262C2.0342 13.5256 2.0342 13.5248 2.03419 13.5238C2.03419 13.5218 2.03418 13.5197 2.03418 13.5181C2.03418 13.5172 2.03418 13.5167 2.03418 13.5164C2.03418 13.516 2.03418 13.5166 2.03417 13.5179C2.03417 13.5185 2.03416 13.52 2.03414 13.5221C2.03413 13.5231 2.03411 13.5248 2.03408 13.5268C2.03405 13.5286 2.03399 13.5321 2.03388 13.5366C2.03382 13.5388 2.03373 13.5422 2.03358 13.5464C2.03345 13.5501 2.03319 13.5571 2.03271 13.5658C2.03246 13.5703 2.03207 13.5769 2.03148 13.5849C2.03122 13.5883 2.03061 13.5958 2.03026 13.5998C2.02981 13.6047 2.02872 13.6157 2.02806 13.6218C2.02718 13.6294 2.02493 13.647 2.02351 13.6569C2.02144 13.6703 2.01562 13.7029 2.01169 13.7221C2.00491 13.7513 1.98191 13.8302 1.964 13.8791C1.91939 13.9763 1.6834 14.2716 1.45392 14.4187C0.998492 14.5104 0.350603 14.2409 0.1923 14.0506C0.143337 13.9653 0.0862681 13.8294 0.0718102 13.7826C0.0644272 13.755 0.0539548 13.7087 0.050416 13.6903C0.048144 13.6773 0.0445918 13.6547 0.043236 13.645C0.0422601 13.6376 0.0406473 13.6243 0.0399903 13.6183C0.0394843 13.6135 0.0386177 13.6047 0.0382503 13.6007C0.0374223 13.5916 0.0368719 13.584 0.0365344 13.5791C0.03618 13.5739 0.0359217 13.5695 0.0357422 13.5662C0.0355585 13.5629 0.0354165 13.56 0.0353103 13.5577C0.0351031 13.5533 0.0349634 13.5496 0.0348772 13.5472C0.0347081 13.5426 0.0346094 13.5389 0.0345628 13.537C0.0345095 13.535 0.0344738 13.5333 0.0344527 13.5322C0.0344113 13.5302 0.0343888 13.5287 0.0343819 13.5283C0.0343672 13.5273 0.0343676 13.5271 0.0343813 13.5284L2.03426 13.5067C2.03424 13.5042 2.0342 13.5012 2.03416 13.4982C2.03413 13.4967 2.0341 13.4944 2.03404 13.4917C2.03401 13.4903 2.03397 13.4884 2.03391 13.486C2.03386 13.484 2.03376 13.4801 2.03358 13.4752C2.03349 13.4728 2.03335 13.4691 2.03314 13.4646C2.03303 13.4623 2.03289 13.4594 2.0327 13.456C2.03252 13.4527 2.03226 13.4483 2.03191 13.4431C2.03157 13.4381 2.03102 13.4306 2.03019 13.4213C2.02982 13.4173 2.02895 13.4086 2.02845 13.4037C2.02779 13.3978 2.02617 13.3845 2.0252 13.377C2.02384 13.3674 2.02029 13.3447 2.01802 13.3318C2.01448 13.3133 2.004 13.2671 1.99662 13.2394C1.98216 13.1926 1.92509 13.0568 1.87613 12.9714C1.71783 12.7812 1.06994 12.5117 0.614511 12.6034C0.385025 12.7504 0.149035 13.0458 0.104425 13.1429C0.0865129 13.1919 0.0635161 13.2707 0.0567343 13.3C0.0528002 13.3191 0.0469841 13.3517 0.04491 13.3651C0.0434937 13.3751 0.0412392 13.3927 0.0403591 13.4003C0.0397024 13.4064 0.0386092 13.4173 0.0381597 13.4222C0.037805 13.4263 0.0371969 13.4338 0.0369381 13.4372C0.0363461 13.4452 0.0359537 13.4518 0.0357069 13.4563C0.035224 13.4651 0.0349573 13.4722 0.0348251 13.4759C0.0346773 13.4801 0.0345815 13.4836 0.0345219 13.4859C0.0344054 13.4905 0.0343437 13.4942 0.034313 13.4962C0.0342789 13.4985 0.0342574 13.5003 0.0342439 13.5017C0.0342175 13.5042 0.0342045 13.5064 0.0341977 13.5078C0.0341836 13.5105 0.0341796 13.5131 0.0341782 13.5148C0.0341766 13.5168 0.0341777 13.5187 0.0341798 13.5205C0.0341842 13.5241 0.0341942 13.5279 0.0342072 13.5313C0.0342194 13.5346 0.0342377 13.5385 0.0342644 13.542C0.0342717 13.543 0.0342812 13.5442 0.0342937 13.5455C0.0343049 13.5466 0.0343254 13.5486 0.0343593 13.551C0.0343764 13.5522 0.0344049 13.554 0.0344487 13.5563C0.0344833 13.5581 0.034572 13.5625 0.0347461 13.5681C0.0348308 13.5709 0.0350034 13.5761 0.0353038 13.5827C0.0354571 13.5861 0.0357035 13.5911 0.0360723 13.5973C0.0362344 13.5999 0.0366164 13.6057 0.0368395 13.6089C0.0371251 13.6128 0.0378236 13.6215 0.0382454 13.6263C0.0388206 13.6326 0.0403162 13.6471 0.0412674 13.6554C0.0427094 13.6669 0.0469049 13.6957 0.0498261 13.713C0.0553017 13.7413 0.076245 13.824 0.0939534 13.8776C0.154538 14.0128 0.637519 14.4552 1.14513 14.5311C1.56197 14.3867 1.93695 13.9676 1.98364 13.8515C1.9982 13.8034 2.01578 13.7287 2.02053 13.7025C2.02309 13.6864 2.02681 13.6593 2.0281 13.6483C2.02895 13.6404 2.03029 13.6265 2.03081 13.6205C2.03119 13.6158 2.03182 13.6074 2.03207 13.6036C2.03227 13.6005 2.03262 13.5949 2.03276 13.5923C2.03309 13.5863 2.03331 13.5814 2.03345 13.5781C2.03371 13.5716 2.03386 13.5664 2.03393 13.5637C2.03408 13.5581 2.03415 13.5538 2.03417 13.552C2.03423 13.5479 2.03426 13.5447 2.03427 13.5434C2.03429 13.5403 2.0343 13.5373 2.03431 13.5353C2.03432 13.5308 2.03432 13.5249 2.03432 13.5176H0.0343226ZM0.0343226 10.5176V13.5176H2.03432V10.5176H0.0343226ZM0.0380821 6.43094C-0.0439095 7.37383 0.034318 9.20206 0.0343226 10.5176L2.03432 10.5176C2.03432 9.00846 1.95811 7.43742 2.03056 6.6042L0.0380821 6.43094ZM1.15752 4.03671C1.09415 4.15227 1.01757 4.26669 0.918073 4.40737C0.8277 4.53515 0.697929 4.71223 0.584338 4.88955C0.335764 5.27758 0.0959172 5.76585 0.0380821 6.43094L2.03056 6.6042C2.05139 6.36471 2.12828 6.18713 2.26842 5.96838C2.34918 5.84231 2.43175 5.73077 2.55095 5.56224C2.66102 5.40661 2.79124 5.21702 2.91112 4.99843L1.15752 4.03671ZM3.55668 1.63902C2.44187 2.24511 1.76237 2.93384 1.15752 4.03671L2.91112 4.99843C3.33574 4.22419 3.74147 3.81502 4.51196 3.39613L3.55668 1.63902ZM5.94844 0.521267C5.28037 0.578857 4.79209 0.819656 4.40435 1.06906C4.22826 1.18232 4.05053 1.31296 3.92453 1.40214C3.78497 1.50091 3.67144 1.57663 3.55668 1.63902L4.51196 3.39613C4.73282 3.27605 4.92353 3.14533 5.07994 3.03463C5.2499 2.91434 5.35987 2.83246 5.48631 2.75113C5.70363 2.61135 5.87974 2.53461 6.12021 2.51388L5.94844 0.521267ZM10.0343 0.517572C8.71206 0.517567 6.8947 0.439696 5.94844 0.521267L6.12021 2.51388C6.95781 2.44167 8.51963 2.51757 10.0343 2.51757L10.0343 0.517572ZM11.0343 0.517572H10.0343V2.51757H11.0343V0.517572Z" fill="url(#paint0_linear_686_7287)" mask="url(#path-1-outside-1_686_7287)"/>
</g>
<g filter="url(#filter1_d_686_7287)">
<path fill-rule="evenodd" clip-rule="evenodd" d="M15.9999 17.4834C15.3359 16.3632 14.3419 15.4834 12.9999 15.4834H6.9999C5.65789 15.4834 4.66393 16.3632 3.9999 17.4834C4.02194 17.4993 3.97754 17.468 3.9999 17.4834C4.61455 17.908 5.21121 17.4744 5.9999 17.4834C6.02046 17.4836 5.93815 17.4834 5.9999 17.4834C6.4402 17.486 6.69281 18.1496 6.9999 18.4834H7.9999C8.64955 19.1975 8.6287 20.1729 8.9999 20.4834C9.35507 20.7805 9.82302 20.4834 9.9999 20.4834C10.1768 20.4834 10.6447 20.7805 10.9999 20.4834C11.3711 20.1729 11.3502 19.1975 11.9999 18.4834H12.9999C13.307 18.1496 13.5596 17.486 13.9999 17.4834C14.0115 17.4834 13.9907 17.4834 13.9999 17.4834C14.0399 17.4834 13.9832 17.4836 13.9999 17.4834C14.7886 17.4744 15.3852 17.908 15.9999 17.4834C15.9779 17.4993 16.0223 17.468 15.9999 17.4834ZM9.9999 3.4834C7.53711 3.4834 5.9999 5.87782 5.9999 8.4834C5.9999 11.089 7.53711 12.4834 9.9999 12.4834C12.4627 12.4834 13.9999 11.089 13.9999 8.4834C13.9999 5.87782 12.4627 3.4834 9.9999 3.4834Z" fill="url(#paint1_linear_686_7287)"/>
</g>
<defs>
<filter id="filter0_b_686_7287" x="-23.9993" y="-23.5156" width="69.0674" height="70.0332" filterUnits="userSpaceOnUse" color-interpolation-filters="sRGB">
<feFlood flood-opacity="0" result="BackgroundImageFix"/>
<feGaussianBlur in="BackgroundImage" stdDeviation="12"/>
<feComposite in2="SourceAlpha" operator="in" result="effect1_backgroundBlur_686_7287"/>
<feBlend mode="normal" in="SourceGraphic" in2="effect1_backgroundBlur_686_7287" result="shape"/>
</filter>
<filter id="filter1_d_686_7287" x="0.993408" y="0.483398" width="28.0129" height="33.1318" filterUnits="userSpaceOnUse" color-interpolation-filters="sRGB">
<feFlood flood-opacity="0" result="BackgroundImageFix"/>
<feColorMatrix in="SourceAlpha" type="matrix" values="0 0 0 0 0 0 0 0 0 0 0 0 0 0 0 0 0 0 127 0" result="hardAlpha"/>
<feOffset dx="5" dy="5"/>
<feGaussianBlur stdDeviation="4"/>
<feColorMatrix type="matrix" values="0 0 0 0 0.176471 0 0 0 0 0.556863 0 0 0 0 0.678431 0 0 0 0.5 0"/>
<feBlend mode="normal" in2="BackgroundImageFix" result="effect1_dropShadow_686_7287"/>
<feBlend mode="normal" in="SourceGraphic" in2="effect1_dropShadow_686_7287" result="shape"/>
</filter>
<linearGradient id="paint0_linear_686_7287" x1="1" y1="1.4834" x2="21.0189" y2="20.5182" gradientUnits="userSpaceOnUse">
<stop stop-color="white" stop-opacity="0.25"/>
<stop offset="1" stop-color="white" stop-opacity="0"/>
</linearGradient>
<linearGradient id="paint1_linear_686_7287" x1="10.1011" y1="24.2653" x2="32.1807" y2="9.08889" gradientUnits="userSpaceOnUse">
<stop stop-color="white"/>
<stop offset="1" stop-color="white" stop-opacity="0.2"/>
</linearGradient>
</defs>
</svg>
