<svg width="17" height="17" viewBox="0 0 17 17" fill="none" xmlns="http://www.w3.org/2000/svg">
<g id="Iconly/Broken/Send">
<g id="Send">
<path id="Send_2" fill-rule="evenodd" clip-rule="evenodd" d="M13.8154 1.47125C14.3006 1.3301 14.8262 1.46626 15.1825 1.82913C15.5388 2.19128 15.6705 2.71953 15.5253 3.20858L14.6406 6.18492C14.5563 6.46794 14.2616 6.62834 13.9797 6.54422C13.6985 6.45939 13.5384 6.1614 13.6227 5.87909L14.5074 2.90204C14.557 2.73522 14.4685 2.62258 14.4281 2.58195C14.3877 2.5406 14.2744 2.45077 14.1107 2.49854L2.71255 5.81279C2.53121 5.86554 2.49155 6.01739 2.48305 6.08013C2.47525 6.14286 2.47242 6.2997 2.63393 6.3995L5.03243 7.8752C5.28248 8.02918 5.36181 8.35854 5.2081 8.61091C5.10822 8.77487 4.93396 8.86612 4.75475 8.86612C4.66054 8.86612 4.56491 8.84117 4.47849 8.7877L2.07999 7.3113C1.60468 7.01901 1.35534 6.49289 1.42972 5.93755C1.50409 5.38149 1.88307 4.94021 2.41788 4.78479L13.8154 1.47125ZM12.77 8.74721C12.855 8.46348 13.1504 8.30236 13.4316 8.38791C13.7129 8.47275 13.8729 8.77074 13.7887 9.05376L12.1438 14.5887C11.9845 15.1241 11.5439 15.5005 10.9935 15.5711C10.9318 15.5796 10.8709 15.5832 10.81 15.5832C10.3297 15.5832 9.89056 15.3365 9.63484 14.913L6.73057 10.1039C6.60378 9.89284 6.63565 9.62193 6.8092 9.44799L10.9326 5.29822C11.1401 5.08934 11.4759 5.08934 11.6834 5.29822C11.891 5.5071 11.891 5.84573 11.6834 6.0546L7.85544 9.90781L10.543 14.3577C10.6407 14.5195 10.7944 14.5181 10.8582 14.511C10.9205 14.5024 11.0714 14.4639 11.1252 14.2828L12.77 8.74721Z" fill="#98A0A2"/>
</g>
</g>
</svg>
