<svg width="38" height="38" viewBox="0 0 38 38" fill="none" xmlns="http://www.w3.org/2000/svg">
<circle cx="19" cy="19" r="19" fill="url(#paint0_linear_864_20028)"/>
<path d="M3.5059 24.25C3.36657 24.25 3.24557 24.206 3.1429 24.118C3.04757 24.03 2.9999 23.9163 2.9999 23.777V16.132C2.9999 15.9927 3.0439 15.879 3.1319 15.791C3.2199 15.703 3.33357 15.659 3.4729 15.659H6.1349C6.58957 15.659 6.99657 15.7543 7.3559 15.945C7.72257 16.1357 8.01224 16.396 8.2249 16.726C8.43757 17.0487 8.5439 17.4263 8.5439 17.859C8.5439 18.2477 8.43757 18.5923 8.2249 18.893C8.01957 19.1937 7.74824 19.4283 7.4109 19.597C7.8949 19.7217 8.28724 19.9637 8.5879 20.323C8.88857 20.675 9.0389 21.1297 9.0389 21.687C9.0389 22.193 8.92157 22.6367 8.6869 23.018C8.45957 23.3993 8.14057 23.7 7.7299 23.92C7.32657 24.14 6.8609 24.25 6.3329 24.25H3.5059ZM3.9459 23.359H6.3329C6.67757 23.359 6.9819 23.293 7.2459 23.161C7.51724 23.0217 7.7299 22.831 7.8839 22.589C8.0379 22.3397 8.1149 22.039 8.1149 21.687C8.1149 21.3643 8.0379 21.0857 7.8839 20.851C7.7299 20.6163 7.51724 20.4367 7.2459 20.312C6.9819 20.1873 6.67757 20.125 6.3329 20.125H3.9459V23.359ZM3.9459 19.223H6.1349C6.56757 19.223 6.92324 19.1057 7.2019 18.871C7.48057 18.6363 7.6199 18.299 7.6199 17.859C7.6199 17.4263 7.48057 17.1 7.2019 16.88C6.92324 16.66 6.56757 16.55 6.1349 16.55H3.9459V19.223ZM11.218 24.25C11.086 24.25 10.9724 24.206 10.877 24.118C10.789 24.03 10.745 23.9163 10.745 23.777V16.132C10.745 16 10.789 15.89 10.877 15.802C10.9724 15.7067 11.086 15.659 11.218 15.659C11.35 15.659 11.46 15.7067 11.548 15.802C11.6434 15.89 11.691 16 11.691 16.132V23.337H15.893C16.025 23.337 16.135 23.381 16.223 23.469C16.3184 23.557 16.366 23.6633 16.366 23.788C16.366 23.92 16.3184 24.03 16.223 24.118C16.135 24.206 16.025 24.25 15.893 24.25H11.218ZM20.9357 24.36C20.2977 24.36 19.7111 24.25 19.1757 24.03C18.6404 23.81 18.1747 23.5057 17.7787 23.117C17.3901 22.721 17.0894 22.2553 16.8767 21.72C16.6641 21.1773 16.5577 20.587 16.5577 19.949C16.5577 19.311 16.6641 18.7243 16.8767 18.189C17.0894 17.6537 17.3901 17.1917 17.7787 16.803C18.1747 16.407 18.6404 16.099 19.1757 15.879C19.7111 15.659 20.2977 15.549 20.9357 15.549C21.5737 15.549 22.1567 15.659 22.6847 15.879C23.2201 16.099 23.6857 16.407 24.0817 16.803C24.4777 17.1917 24.7821 17.6537 24.9947 18.189C25.2074 18.7243 25.3137 19.311 25.3137 19.949C25.3137 20.587 25.2074 21.1773 24.9947 21.72C24.7821 22.2553 24.4777 22.721 24.0817 23.117C23.6857 23.5057 23.2201 23.81 22.6847 24.03C22.1567 24.25 21.5737 24.36 20.9357 24.36ZM20.9357 23.48C21.4344 23.48 21.8927 23.392 22.3107 23.216C22.7361 23.0327 23.1027 22.7833 23.4107 22.468C23.7261 22.1453 23.9681 21.7713 24.1367 21.346C24.3054 20.9133 24.3897 20.4477 24.3897 19.949C24.3897 19.4503 24.3054 18.9883 24.1367 18.563C23.9681 18.1303 23.7261 17.7563 23.4107 17.441C23.1027 17.1183 22.7361 16.869 22.3107 16.693C21.8927 16.517 21.4344 16.429 20.9357 16.429C20.4371 16.429 19.9751 16.517 19.5497 16.693C19.1244 16.869 18.7577 17.1183 18.4497 17.441C18.1417 17.7563 17.8997 18.1303 17.7237 18.563C17.5551 18.9883 17.4707 19.4503 17.4707 19.949C17.4707 20.4477 17.5551 20.9133 17.7237 21.346C17.8997 21.7713 18.1417 22.1453 18.4497 22.468C18.7577 22.7833 19.1244 23.0327 19.5497 23.216C19.9751 23.392 20.4371 23.48 20.9357 23.48ZM30.7408 24.36C30.1468 24.36 29.5895 24.2463 29.0688 24.019C28.5555 23.7917 28.1008 23.4763 27.7048 23.073C27.3161 22.6697 27.0118 22.204 26.7918 21.676C26.5791 21.1407 26.4728 20.565 26.4728 19.949C26.4728 19.3403 26.5791 18.772 26.7918 18.244C27.0118 17.7087 27.3161 17.243 27.7048 16.847C28.0935 16.4437 28.5445 16.1283 29.0578 15.901C29.5785 15.6663 30.1395 15.549 30.7408 15.549C31.2761 15.549 31.7565 15.626 32.1818 15.78C32.6071 15.9267 33.0215 16.1687 33.4248 16.506C33.4908 16.5573 33.5311 16.616 33.5458 16.682C33.5678 16.7407 33.5678 16.7993 33.5458 16.858C33.5311 16.9167 33.5055 16.968 33.4688 17.012C33.4541 17.0927 33.4101 17.1587 33.3368 17.21C33.2708 17.254 33.1865 17.276 33.0838 17.276C32.9885 17.276 32.8968 17.2393 32.8088 17.166C32.5301 16.9167 32.2295 16.7333 31.9068 16.616C31.5841 16.4913 31.1955 16.429 30.7408 16.429C30.2788 16.429 29.8425 16.5243 29.4318 16.715C29.0285 16.8983 28.6728 17.1513 28.3648 17.474C28.0568 17.7967 27.8148 18.1707 27.6388 18.596C27.4701 19.0213 27.3858 19.4723 27.3858 19.949C27.3858 20.4403 27.4701 20.8987 27.6388 21.324C27.8148 21.7493 28.0568 22.1233 28.3648 22.446C28.6728 22.7687 29.0285 23.0217 29.4318 23.205C29.8425 23.3883 30.2788 23.48 30.7408 23.48C31.1295 23.48 31.4998 23.414 31.8518 23.282C32.2038 23.15 32.5411 22.963 32.8638 22.721C32.9665 22.6403 33.0691 22.6073 33.1718 22.622C33.2818 22.6367 33.3735 22.6843 33.4468 22.765C33.5275 22.8383 33.5678 22.941 33.5678 23.073C33.5678 23.139 33.5568 23.1977 33.5348 23.249C33.5201 23.3003 33.4871 23.3553 33.4358 23.414C33.0545 23.7513 32.6328 23.9933 32.1708 24.14C31.7161 24.2867 31.2395 24.36 30.7408 24.36ZM33.5678 23.073L32.6548 22.886V20.741H30.9938C30.8618 20.741 30.7481 20.7043 30.6528 20.631C30.5648 20.5503 30.5208 20.4477 30.5208 20.323C30.5208 20.2057 30.5648 20.1067 30.6528 20.026C30.7481 19.9453 30.8618 19.905 30.9938 19.905H33.1058C33.2378 19.905 33.3478 19.949 33.4358 20.037C33.5238 20.125 33.5678 20.2387 33.5678 20.378V23.073Z" fill="white"/>
<defs>
<linearGradient id="paint0_linear_864_20028" x1="19" y1="0" x2="19" y2="38" gradientUnits="userSpaceOnUse">
<stop stop-color="#5D94FB"/>
<stop offset="1" stop-color="#276AF9"/>
</linearGradient>
</defs>
</svg>
