<svg width="30" height="30" viewBox="0 0 30 30" fill="none" xmlns="http://www.w3.org/2000/svg">
<g clip-path="url(#clip0_116_230)">
<path d="M30 15C30 6.71573 23.2843 0 15 0C6.71573 0 0 6.71573 0 15C0 23.2843 6.71573 30 15 30C23.2843 30 30 23.2843 30 15Z" fill="#FC3F1D"/>
<path d="M17.2118 8.40067H15.6938C13.0914 8.40067 11.7902 9.70185 11.7902 11.6537C11.7902 13.8224 12.6576 14.9067 14.6095 16.2079L16.1275 17.2923L11.7902 24.0151H8.32031L12.4408 17.9429C10.0553 16.2079 8.75402 14.6898 8.75402 11.8706C8.75402 8.40067 11.1396 6.01514 15.6938 6.01514H20.248V24.0151H17.2118V8.40067Z" fill="white"/>
</g>
<defs>
<clipPath id="clip0_116_230">
<rect width="30" height="30" fill="white"/>
</clipPath>
</defs>
</svg>
