<svg width="43" height="43" viewBox="0 0 43 43" fill="none" xmlns="http://www.w3.org/2000/svg">
<path fill-rule="evenodd" clip-rule="evenodd" d="M21.4999 42.1732C32.004 42.1732 40.5192 33.658 40.5192 23.154C40.5192 12.65 32.004 4.13477 21.4999 4.13477C10.9959 4.13477 2.48071 12.65 2.48071 23.154C2.48071 26.5651 3.38903 29.482 4.96148 32.2501L2.48071 42.1732L12.4038 39.6925C15.1025 41.1619 18.2109 42.1732 21.4999 42.1732ZM21.4999 38.8655C30.388 38.8655 37.2115 32.042 37.2115 23.154C37.2115 14.266 30.388 7.44246 21.4999 7.44246C12.6119 7.44246 5.7884 14.266 5.7884 23.154C5.7884 26.5857 6.43879 29.6381 8.26917 32.2501L6.61533 38.0386L12.4038 36.3848C14.9978 38.1748 18.1099 38.8655 21.4999 38.8655Z" fill="#BFC8D0"/>
<path d="M38.0386 22.3265C38.0386 31.2321 31.2326 38.0381 22.327 38.0381C18.9303 38.0381 15.0031 37.3509 12.404 35.5573L7.44242 36.3842L9.09627 31.4227C7.26227 28.8054 5.78857 25.765 5.78857 22.3265C5.78857 13.421 13.4214 5.78809 22.327 5.78809C31.2326 5.78809 38.0386 13.421 38.0386 22.3265Z" fill="url(#paint0_linear_646_1069)"/>
<path fill-rule="evenodd" clip-rule="evenodd" d="M21.4999 40.5189C32.004 40.5189 40.5192 32.0037 40.5192 21.4997C40.5192 10.9957 32.004 2.48047 21.4999 2.48047C10.9959 2.48047 2.48071 10.9957 2.48071 21.4997C2.48071 24.9108 3.38903 27.8277 4.96148 30.5959L2.48071 40.5189L12.4038 38.0382C15.1025 39.5076 18.2109 40.5189 21.4999 40.5189ZM21.4999 37.2112C30.388 37.2112 37.2115 30.3877 37.2115 21.4997C37.2115 12.6117 30.388 5.78816 21.4999 5.78816C12.6119 5.78816 5.7884 12.6117 5.7884 21.4997C5.7884 24.9314 6.43879 27.9838 8.26917 30.5959L6.61533 36.3843L12.4038 34.7305C14.9978 36.5205 18.1099 37.2112 21.4999 37.2112Z" fill="white"/>
<path d="M16.5384 12.4038C16.0871 11.4988 15.5841 11.5769 14.8846 11.5769C13.6344 11.5769 11.5769 12.9296 11.5769 15.7115C11.5769 17.9914 12.3201 20.2474 15.7115 23.9807C18.9845 27.5837 23.7183 29.8326 27.2884 29.7692C30.8586 29.7057 31.4231 26.6702 31.4231 25.6346C31.4231 25.1755 30.7927 24.8699 30.5961 24.8077C29.3795 24.2248 27.799 23.3578 27.2884 23.1538C26.7779 22.9498 25.8003 23.0037 25.6346 23.1538C25.1716 23.5942 24.295 25.3426 23.9808 25.6346C23.6665 25.9265 23.3488 25.7449 23.1538 25.6346C22.4364 25.3472 20.5698 23.8273 19.0192 22.3269C17.1016 20.4713 16.8997 20.4144 16.5384 19.8461C16.2494 19.3915 16.4326 19.1411 16.5384 19.0192C16.9516 18.5433 17.9364 17.7304 18.1923 17.3653C18.4481 17.0002 18.3142 16.0567 18.1923 15.7115C17.6682 14.2267 16.8995 13.1278 16.5384 12.4038Z" fill="white"/>
<defs>
<linearGradient id="paint0_linear_646_1069" x1="36.0229" y1="9.81933" x2="5.78857" y2="38.0381" gradientUnits="userSpaceOnUse">
<stop stop-color="#5BD066"/>
<stop offset="1" stop-color="#27B43E"/>
</linearGradient>
</defs>
</svg>
