<svg width="30" height="30" viewBox="0 0 30 30" fill="none" xmlns="http://www.w3.org/2000/svg">
<g clip-path="url(#clip0_116_234)">
<mask id="mask0_116_234" style="mask-type:luminance" maskUnits="userSpaceOnUse" x="0" y="0" width="30" height="30">
<path d="M29.8514 0H0.148438V30H29.8514V0Z" fill="white"/>
</mask>
<g mask="url(#mask0_116_234)">
<path d="M0.148438 14.4C0.148438 7.61178 0.148438 4.21767 2.23639 2.10883C4.32435 0 7.68485 0 14.4059 0H15.594C22.315 0 25.6755 0 27.7635 2.10883C29.8514 4.21767 29.8514 7.61178 29.8514 14.4V15.6C29.8514 22.3882 29.8514 25.7823 27.7635 27.8912C25.6755 30 22.315 30 15.594 30H14.4059C7.68485 30 4.32435 30 2.23639 27.8912C0.148438 25.7823 0.148438 22.3882 0.148438 15.6V14.4Z" fill="#0077FF"/>
<path d="M15.9527 21.6125C9.1829 21.6125 5.32155 16.925 5.16064 9.125H8.55174C8.66313 14.85 11.1631 17.275 13.1433 17.775V9.125H16.3364V14.0625C18.2919 13.85 20.3461 11.6 21.0392 9.125H24.2323C23.7001 12.175 21.4724 14.425 19.8883 15.35C21.4724 16.1 24.0097 18.0625 24.975 21.6125H21.4601C20.7051 19.2375 18.8241 17.4 16.3364 17.15V21.6125H15.9527Z" fill="white"/>
</g>
</g>
<defs>
<clipPath id="clip0_116_234">
<rect width="30" height="30" fill="white"/>
</clipPath>
</defs>
</svg>
