<?xml version="1.0" encoding="utf-8"?>
<!-- Generator: Adobe Illustrator 23.1.0, SVG Export Plug-In . SVG Version: 6.00 Build 0)  -->
<svg version="1.1" id="Слой_1" xmlns="http://www.w3.org/2000/svg" xmlns:xlink="http://www.w3.org/1999/xlink" x="0px" y="0px"
	 viewBox="0 0 20 20" style="enable-background:new 0 0 20 20;" xml:space="preserve">
<style type="text/css">
	.st0{fill-rule:evenodd;clip-rule:evenodd;fill:#303F9F;}
</style>
<title>061-Reverse</title>
<desc>Created with Sketch.</desc>
<g>
	<g>
		<path class="st0" d="M20,5.9L20,5.9C20,5.8,20,5.8,20,5.9L20,5.9L20,5.9L20,5.9l-4.3-3.8l0,0c0,0,0,0-0.1,0c0,0,0,0-0.1,0l0,0l0,0
			c0,0,0,0-0.1,0c0,0,0,0-0.1,0l0,0c0,0,0,0-0.1,0l0,0l0,0c0,0,0,0,0,0.1c0,0,0,0,0,0.1l0,0V5H1.1C0.5,5,0,5.4,0,6s0.5,1,1.1,1H15
			v2.7l0,0c0,0,0,0,0,0.1c0,0,0,0,0,0.1l0,0l0,0c0,0,0.1,0,0.1,0.1l0,0h0.1l0,0h0.1l0,0c0,0,0,0,0.1,0l4.3-3.7l0,0l0,0l0,0
			c0,0,0,0,0-0.1c0,0,0,0,0-0.1C20,6,20,6,20,5.9C20,6,20,6,20,5.9z"/>
		<path class="st0" d="M18.9,13H5v-2.7l0,0c0,0,0,0,0-0.1c0,0,0,0,0-0.1l0,0l0,0c0,0,0,0-0.1,0l0,0c0,0,0,0-0.1,0c0,0,0,0-0.1,0l0,0
			l0,0c0,0,0,0-0.1,0c0,0,0,0-0.1,0l0,0l-4.3,3.7l0,0l0,0l0,0c0,0,0,0,0,0.1c0,0,0,0,0,0.1c0,0,0,0,0,0.1c0,0,0,0,0,0.1
			c0,0,0,0,0,0.1c0,0,0,0,0,0.1l0,0l0,0l0,0l4.3,3.7c0,0,0,0,0.1,0l0,0h0.1l0,0h0.1l0,0c0,0,0.1,0,0.1-0.1l0,0l0,0c0,0,0,0,0-0.1
			c0,0,0,0,0-0.1l0,0V15h13.9c0.6,0,1.1-0.4,1.1-1S19.5,13,18.9,13z"/>
	</g>
</g>
</svg>
